<svg xmlns="http://www.w3.org/2000/svg" width="857.109" height="577.835" viewBox="0 0 857.109 577.835">
    <defs>
        <style>
            .prefix__cls-1,.prefix__cls-15,.prefix__cls-19,.prefix__cls-21,.prefix__cls-7{fill:none}.prefix__cls-1,.prefix__cls-15{stroke:#195dff}.prefix__cls-1,.prefix__cls-15,.prefix__cls-19,.prefix__cls-21{stroke-linecap:round}.prefix__cls-1,.prefix__cls-10,.prefix__cls-15,.prefix__cls-19,.prefix__cls-21,.prefix__cls-7,.prefix__cls-8,.prefix__cls-9{stroke-miterlimit:10}.prefix__cls-15,.prefix__cls-2{opacity:.5}.prefix__cls-10,.prefix__cls-7,.prefix__cls-8,.prefix__cls-9{stroke:#263238}.prefix__cls-21,.prefix__cls-6,.prefix__cls-7,.prefix__cls-9{stroke-width:1.5px}.prefix__cls-6{stroke:#707070}.prefix__cls-17,.prefix__cls-6{fill:#e2edff}.prefix__cls-8{fill:#263238}.prefix__cls-10,.prefix__cls-27,.prefix__cls-9{fill:#fff}.prefix__cls-17,.prefix__cls-19,.prefix__cls-21,.prefix__cls-25{stroke:#002226}.prefix__cls-24{stroke:#000}.prefix__cls-23{fill:#002226}.prefix__cls-24{fill:#dcf5f8}.prefix__cls-25{fill:#f8feff}.prefix__cls-29{fill-rule:evenodd;fill:#a8cffa}
        </style>
    </defs>
    <g id="prefix__Group_3636" data-name="Group 3636" transform="translate(-945 -1235.278)">
        <path id="prefix__Line_194" d="M0 0L836 0" class="prefix__cls-1" data-name="Line 194" transform="translate(945.5 1812.612)"/>
        <g id="prefix__Group_2389" class="prefix__cls-2" data-name="Group 2389" transform="translate(1499.277 1659)">
            <circle id="prefix__Ellipse_114" cx="18.89" cy="18.89" r="18.89" data-name="Ellipse 114" transform="translate(21.128 37.067)" style="stroke-miterlimit:10.001;stroke-width:1.5px;stroke:#263238;fill:#f0f4f3"/>
            <circle id="prefix__Ellipse_115" cx="18.888" cy="18.888" r="18.888" data-name="Ellipse 115" transform="translate(153.428 37.064)" style="stroke-width:1.5px;stroke:#263238;fill:#f0f4f3;stroke-miterlimit:10"/>
            <g id="prefix__Group_2369" data-name="Group 2369">
                <path id="prefix__Path_1358" d="M-1419.878 4388.966s5.018-3.136 27.9-10.66 37.62-10.031 60.192-9.4 52.982 9.091 58.626 11.287 8.151 2.821 6.9 4.389-8.152 7.208-7.211 9.717 16.3 16.3 17.244 18.5-3.135 9.717-3.763 11.6-4.075 2.51-6.9 2.822-203.463 0-203.463 0a11.069 11.069 0 0 1-2.195-7.837c.627-4.389 1.3-10.177 4.125-13.886 2.288-3 4.652-6.178 10.609-6.805 3.743-.402 36.996-9.413 37.936-9.727z" data-name="Path 1358" transform="translate(1472.636 -4368.81)" style="stroke:#707070;fill:#c6ff00;stroke-width:1.5px"/>
                <g id="prefix__Group_2388" data-name="Group 2388">
                    <g id="prefix__Group_2367" data-name="Group 2367">
                        <path id="prefix__Path_1359" d="M-1419.878 4388.966s5.018-3.136 27.9-10.66 37.62-10.031 60.192-9.4 52.982 9.091 58.626 11.287 8.151 2.821 6.9 4.389-8.152 7.208-7.211 9.717 16.3 16.3 17.244 18.5-3.135 9.717-3.763 11.6-4.075 2.51-6.9 2.822-203.463 0-203.463 0a11.069 11.069 0 0 1-2.195-7.837c.627-4.389 1.3-10.177 4.125-13.886 2.288-3 4.652-6.178 10.609-6.805 3.743-.402 36.996-9.413 37.936-9.727z" class="prefix__cls-6" data-name="Path 1359" transform="translate(1472.636 -4368.81)"/>
                    </g>
                </g>
                <path id="prefix__Path_1363" d="M-1419.878 4388.966s5.018-3.136 27.9-10.66 37.62-10.031 60.192-9.4 52.982 9.091 58.626 11.287 8.151 2.821 6.9 4.389-8.152 7.208-7.211 9.717 16.3 16.3 17.244 18.5-3.135 9.717-3.763 11.6-4.075 2.51-6.9 2.822-203.463 0-203.463 0a11.069 11.069 0 0 1-2.195-7.837c.627-4.389 1.3-10.177 4.125-13.886 2.288-3 4.652-6.178 10.609-6.805 3.743-.402 36.996-9.413 37.936-9.727z" class="prefix__cls-7" data-name="Path 1363" transform="translate(1472.636 -4368.81)"/>
            </g>
            <path id="prefix__Rectangle_2438" d="M0 0H11.913V3.135H0z" class="prefix__cls-8" data-name="Rectangle 2438" transform="translate(2.284 42.101)"/>
            <path id="prefix__Path_1364" d="M-1140.942 4428.911h-1.9a6.083 6.083 0 0 0-5.644 3.81l-1.913 4.747h6.214z" class="prefix__cls-9" data-name="Path 1364" transform="translate(1160.832 -4392.232)"/>
            <path id="prefix__Path_1365" d="M-1122.689 4434.167c.071.194.135.395.191.6l1.279 4.747h-2.979a28.556 28.556 0 0 1 1.509-5.347z" class="prefix__cls-10" data-name="Path 1365" transform="translate(1125.12 -4394.28)"/>
            <path id="prefix__Path_1366" d="M-1305.964 4392.229s5.018-3.135 27.9-10.66c5.225-1.717 10.023-3.172 14.59-4.389h16.133l3.448.94-46.4 14.108z" data-name="Path 1366" transform="translate(1358.722 -4372.072)" style="fill:#f9fefe;stroke:#263238;stroke-miterlimit:10"/>
            <path id="prefix__Path_1367" d="M-1469.691 4393.6v21.2s-12.895-10.6-11.3-13.6 11.3-7.6 11.3-7.6z" class="prefix__cls-8" data-name="Path 1367" transform="translate(1691.425 -4378.471)"/>
            <g id="prefix__Group_2371" data-name="Group 2371" transform="translate(15.675)">
                <path id="prefix__Path_1368" d="M-1445.563 4388.966s5.018-3.136 27.9-10.66 37.621-10.031 60.193-9.4 52.982 9.091 58.625 11.287 8.152 2.821 6.9 4.389-8.151 7.208-7.21 9.717 16.3 16.3 17.244 18.5-3.135 9.717-3.762 11.6-4.075 2.51-6.9 2.822-203.463 0-203.463 0a11.07 11.07 0 0 1-2.195-7.837c.627-4.389 1.3-10.177 4.125-13.886 2.287-3 4.653-6.178 10.609-6.805 3.742-.402 36.997-9.413 37.934-9.727z" class="prefix__cls-6" data-name="Path 1368" transform="translate(1498.321 -4368.81)"/>
                <path id="prefix__Path_1371" d="M-1445.563 4388.966s5.018-3.136 27.9-10.66 37.621-10.031 60.193-9.4 52.982 9.091 58.625 11.287 8.152 2.821 6.9 4.389-8.151 7.208-7.21 9.717 16.3 16.3 17.244 18.5-3.135 9.717-3.762 11.6-4.075 2.51-6.9 2.822-203.463 0-203.463 0a11.07 11.07 0 0 1-2.195-7.837c.627-4.389 1.3-10.177 4.125-13.886 2.287-3 4.653-6.178 10.609-6.805 3.742-.402 36.997-9.413 37.934-9.727z" data-name="Path 1371" transform="translate(1498.321 -4368.81)" style="stroke-width:.25px;stroke:#263238;stroke-miterlimit:10;fill:none"/>
            </g>
            <path id="prefix__Path_1372" d="M-1319.458 4380.007l-12.542 13.248h-92.207v-3a254.584 254.584 0 0 1 38.861-11.3c19.961-3.885 24.906-3.534 33.915-3.357s31.973 4.409 31.973 4.409z" data-name="Path 1372" transform="translate(1506.451 -4371.415)" style="fill:#f9fefe"/>
            <path id="prefix__Path_1375" d="M-1319.458 4380.007l-12.542 13.248h-92.207v-3a254.584 254.584 0 0 1 38.861-11.3c19.961-3.885 24.906-3.534 33.915-3.357s31.973 4.409 31.973 4.409z" class="prefix__cls-7" data-name="Path 1375" transform="translate(1506.451 -4371.415)"/>
            <path id="prefix__Line_224" d="M0 0L0 28.793" data-name="Line 224" transform="translate(145.306 23.607)" style="stroke:#263238;stroke-miterlimit:10;fill:none"/>
            <g id="prefix__Group_2374" data-name="Group 2374" transform="translate(174.746 37.064)">
                <circle id="prefix__Ellipse_116" cx="18.888" cy="18.888" r="18.888" class="prefix__cls-8" data-name="Ellipse 116"/>
                <circle id="prefix__Ellipse_118" cx="14.974" cy="14.974" r="14.974" class="prefix__cls-10" data-name="Ellipse 118" transform="translate(3.97 4.063)"/>
            </g>
            <g id="prefix__Group_2375" data-name="Group 2375" transform="translate(41.821 37.064)">
                <circle id="prefix__Ellipse_117" cx="18.888" cy="18.888" r="18.888" class="prefix__cls-8" data-name="Ellipse 117"/>
            </g>
            <path id="prefix__Path_1380" d="M-1171.3 4428.707s14.058-.72 14.685 0-4.7 6.362-6.583 7.617c-1.493.995-8.506.806-11.343.685a20.309 20.309 0 0 1 3.241-8.302z" class="prefix__cls-9" data-name="Path 1380" transform="translate(1191.191 -4392.028)"/>
            <path id="prefix__Path_1381" d="M-1359.059 4375.722c.922-.062 1.8-.105 2.64-.137l2.367 17.649h-6.27z" class="prefix__cls-8" data-name="Path 1381" transform="translate(1502.056 -4371.45)"/>
            <circle id="prefix__Ellipse_119" cx="14.974" cy="14.974" r="14.974" class="prefix__cls-10" data-name="Ellipse 119" transform="translate(45.984 41.127)"/>
        </g>
        <g id="prefix__Group_3620" data-name="Group 3620">
            <path id="prefix__Line_194-2" d="M0 0L143.231 0" class="prefix__cls-15" data-name="Line 194" transform="translate(1658.378 1733.612)"/>
            <path id="prefix__Line_194-3" d="M0 0L83.05 0" class="prefix__cls-15" data-name="Line 194" transform="translate(1499.5 1733.612)"/>
        </g>
        <g id="prefix__Group_2391" data-name="Group 2391" transform="translate(2277.018 -2948.15)" style="opacity:.7">
            <path id="prefix__Path_1413" d="M-1258.48 4203.936c3.333-1.818 4.849-.3 6.061-1.818s-3.333-5.455 5.758-9.394c0 0 .606-8.485 13.03-8.789s9.091 8.485 12.423 10.606 4.243-1.211 7.576.909 1.818 6.363 4.545 6.97 6.364-2.727 9.7-.606 3.334 3.939 4.849 3.939 4.546-1.21 6.363 0 3.939 2.727 3.939 2.727h-76.664s-.914-2.727 2.42-4.544z" class="prefix__cls-10" data-name="Path 1413"/>
        </g>
        <g id="prefix__Group_2391-2" data-name="Group 2391" transform="translate(2013.018 -2743.15)">
            <path id="prefix__Path_1413-2" d="M-510.436 4108.225c4.677-2.551 6.8-.426 8.505-2.551s-4.677-7.655 8.079-13.182c0 0 .851-11.907 18.283-12.331s12.756 11.905 17.431 14.881 5.954-1.7 10.631 1.276 2.551 8.929 6.377 9.78 8.929-3.826 13.607-.851 4.678 5.527 6.8 5.527 6.378-1.7 8.929 0 5.528 3.826 5.528 3.826h-107.572s-1.275-3.825 3.402-6.375z" class="prefix__cls-10" data-name="Path 1413"/>
        </g>
        <g id="prefix__Group_2255" class="prefix__cls-2" data-name="Group 2255" transform="translate(2005.901 -2678.004)">
            <g id="prefix__Group_2225" data-name="Group 2225" transform="translate(-796.781 4065.896)">
                <g id="prefix__Group_2224" data-name="Group 2224">
                    <path id="prefix__Path_1374" d="M-766.515 4074.461a.742.742 0 0 1-.526.036l-2.888-.871a.742.742 0 0 1-.52-.59.743.743 0 0 1 .612-.854l8.9-1.5a1.675 1.675 0 0 1 .768.046l1.046.315z" class="prefix__cls-17" data-name="Path 1374" transform="translate(770.459 -4070.655)"/>
                </g>
            </g>
            <g id="prefix__Group_2227" data-name="Group 2227" transform="translate(-834.901 4059.004)">
                <g id="prefix__Group_2226" data-name="Group 2226">
                    <path id="prefix__Path_1375-2" d="M-744.568 4066.6l-7.44 12.9c-.874 1.851-8.284 8.048-22.081 4.377 0 0-53.01-13.337-60.474-21.3a1.135 1.135 0 0 1-.3-.522 1.136 1.136 0 0 1 .814-1.386c2.987-.6 10.14-2.073 11.914-1.539l45.1 13.6c1.619.488 13.36 4.029 18.506 1.989l10.908-9.033z" class="prefix__cls-17" data-name="Path 1375" transform="translate(834.901 -4059.004)"/>
                </g>
            </g>
            <g id="prefix__Group_2247" data-name="Group 2247" transform="translate(-756.15 4078.959)">
                <g id="prefix__Group_2246" data-name="Group 2246">
                    <path id="prefix__Path_1382" d="M-695.982 4098.427a.966.966 0 0 0 .275-1.338l-2.146-3.27a.974.974 0 0 0-.529-.4l-2.141-.644a.967.967 0 0 0-.994.274.966.966 0 0 0 .063 1.365l4.288 3.915a.954.954 0 0 0 .371.212.966.966 0 0 0 .813-.114z" class="prefix__cls-17" data-name="Path 1382" transform="translate(701.769 -4092.738)"/>
                </g>
            </g>
            <g id="prefix__Group_2252" data-name="Group 2252" transform="translate(-803.124 4076.448)">
                <g id="prefix__Group_2249" data-name="Group 2249" transform="translate(.598 .299)">
                    <g id="prefix__Group_2248" data-name="Group 2248">
                        <path id="prefix__Path_1383" d="M-772.878 4096.655a2.827 2.827 0 0 0 3.4-2.107 3.065 3.065 0 0 0-1.984-3.735l-5.756-1.736-.057-.016a1.819 1.819 0 0 0-2.226 1.291l-.608 2.292a1.82 1.82 0 0 0 1.233 2.208l5.872 1.771c.041.012.083.022.126.032z" class="prefix__cls-17" data-name="Path 1383" transform="translate(780.171 -4089)"/>
                    </g>
                </g>
                <g id="prefix__Group_2251" data-name="Group 2251">
                    <g id="prefix__Group_2250" data-name="Group 2250">
                        <path id="prefix__Path_1384" d="M-780.286 4094.343a1.2 1.2 0 0 0 1.469-.854l.926-3.484a1.2 1.2 0 0 0-.816-1.46l-.038-.011a1.2 1.2 0 0 0-1.471.854l-.926 3.484a1.2 1.2 0 0 0 .816 1.459z" class="prefix__cls-17" data-name="Path 1384" transform="translate(781.182 -4088.494)"/>
                    </g>
                </g>
            </g>
            <g id="prefix__Group_2254" data-name="Group 2254" transform="translate(-802.366 4071.776)">
                <g id="prefix__Group_2253" data-name="Group 2253">
                    <path id="prefix__Path_1385" d="M-759.519 4098.923a.743.743 0 0 0 .215-1.028l-9.133-13.919a.749.749 0 0 0-.407-.3l-10.1-3.045a.744.744 0 0 0-.762.211.743.743 0 0 0 .047 1.049l18.248 16.667a.743.743 0 0 0 .288.163l.983.3a.747.747 0 0 0 .621-.098z" class="prefix__cls-17" data-name="Path 1385" transform="translate(779.899 -4080.595)"/>
                </g>
            </g>
        </g>
        <g id="prefix__Group_3621" data-name="Group 3621" transform="translate(1744 1625.245)">
            <path id="prefix__Path_659" d="M497.313 773.675a18.139 18.139 0 0 0 9.337-6.518c3.755-5.27 3.69-13.964-.434-19.021-2.155-2.642-5.057-4.14-6.912-7.17a12.941 12.941 0 0 1-.748-12.755s7.455-9.192-4.97-15.9c0 0-6.461-2.982-2.734-11.18 0 0 3.23-11.18-8.946-11.677 0 0-12.673-1.242-9.94 13.166.495 2.613 1.828 4.009.231 6.827-3.028 5.339-11.224 5.2-10.786 12.91.243 4.287 3.656 7.739 3.563 12.077-.129 6.054-5.622 8.391-8.988 12.481a18.464 18.464 0 0 0-3.754 6.838c-2.409 8.97 5.315 15.817 12.279 19.924" data-name="Path 659" transform="translate(-451.781 -689.426)" style="stroke:#000;fill:#eaf9fb;stroke-miterlimit:10;stroke-linecap:round"/>
            <path id="prefix__Line_55" d="M0 42.981L0 0" class="prefix__cls-19" data-name="Line 55" transform="translate(27.639 65.864)"/>
            <path id="prefix__Line_56" d="M0 30.062L0 0" class="prefix__cls-19" data-name="Line 56" transform="translate(27.639 32.821)"/>
            <path id="prefix__Line_57" d="M0 7.453L7.704 0" class="prefix__cls-19" data-name="Line 57" transform="translate(27.639 44.995)"/>
            <path id="prefix__Line_58" d="M4.97 4.969L0 0" class="prefix__cls-19" data-name="Line 58" transform="translate(22.669 32.324)"/>
            <path id="prefix__Line_59" d="M0 10.435L0 0" class="prefix__cls-19" data-name="Line 59" transform="translate(28.385 16.424)"/>
        </g>
        <g id="prefix__Group_3619" data-name="Group 3619" transform="translate(.392 46)">
            <g id="prefix__Group_2390" data-name="Group 2390" transform="translate(959.951 1415)">
                <path id="prefix__Path_659-2" d="M-336.038 4358.994c20.805-1.575 33.7-25.137 28.175-45.718a42.36 42.36 0 0 0-8.614-15.689c-7.723-9.387-20.327-14.746-20.625-28.638-.212-9.953 7.619-17.875 8.177-27.711 1.005-17.685-17.8-17.374-24.749-29.624-3.667-6.466-.607-9.667.529-15.664 6.271-33.061-22.805-30.212-22.805-30.212-27.938 1.141-20.529 26.794-20.529 26.794 8.553 18.81-6.272 25.652-6.272 25.652-28.511 15.391-11.4 36.483-11.4 36.483 4.743 9.681 3.849 20.17-1.717 29.268-4.255 6.952-10.915 10.391-15.859 16.454-9.464 11.6-9.612 31.554-1 43.646 5.082 7.133 13.088 12.393 21.425 14.957s75.264.002 75.264.002z" data-name="Path 659" transform="translate(439.017 -4165.675)" style="stroke:#000;fill:#eaf9fb;stroke-width:1.5px;stroke-miterlimit:10;stroke-linecap:round"/>
                <path id="prefix__Line_55-2" d="M0 98.623L0 0" class="prefix__cls-21" data-name="Line 55" transform="translate(68.765 151.133)"/>
                <path id="prefix__Line_56-2" d="M0 68.979L0 0" class="prefix__cls-21" data-name="Line 56" transform="translate(68.765 75.313)"/>
                <path id="prefix__Line_57-2" d="M17.677 17.102L0 0" class="prefix__cls-21" data-name="Line 57" transform="translate(51.089 103.246)"/>
                <path id="prefix__Line_58-2" d="M0 11.401L11.404 0" class="prefix__cls-21" data-name="Line 58" transform="translate(68.765 74.173)"/>
                <path id="prefix__Line_59-2" d="M0 23.943L0 0" class="prefix__cls-21" data-name="Line 59" transform="translate(67.055 37.688)"/>
            </g>
            <path id="prefix__Line_194-4" d="M0 0L67.557 0" class="prefix__cls-1" data-name="Line 194" transform="translate(997.571 1664.635)"/>
        </g>
        <path id="prefix__Path_2316" d="M-122.059 5982.935a96.641 96.641 0 0 0 75.982-41.43c12.671-18.26 32.268-67.534 6.08-82.847-11.506-6.728-23.149-.043-23.524 12.764-.858 29.353 43.334 35.721 64.667 37.942 43.65 4.545 87.908-7.578 125.568-29.427 41.536-24.1 81.527-54.958 128.392-67.957 90.823-25.192 186.253 14.792 245.2 85.425a262.833 262.833 0 0 1 46.821 82.612c10.133 29.461 15 59.793 16.026 90.855" data-name="Path 2316" transform="translate(1191.059 -4406.406)" style="stroke:#264a9f;stroke-dasharray:1 3;stroke-miterlimit:10;fill:none"/>
        <g id="prefix__Group_3618" data-name="Group 3618" transform="translate(2177.943 -2736.35)">
            <g id="prefix__man" transform="translate(-966.737 4179.838)">
                <g id="prefix__Group_3606" data-name="Group 3606" transform="translate(67.957 158.504)">
                    <path id="prefix__Path_2247" d="M-738.447 4584.53s6.144 5.694 4.945 9.739-6.743 6.743-7.492 11.688-3.746 7.642-6.443 7.642H-760.3s-1.986-3.479 2.809-4.528 6.6-6.86 6.3-12.253a96.577 96.577 0 0 1 .45-12.586l10.188-2.4z" class="prefix__cls-23" data-name="Path 2247" transform="translate(849.926 -4404.875)"/>
                    <path id="prefix__Path_2248" d="M-830.706 4602.554s1.5 11.987-1.2 13.335-34.913.9-34.913.9 0-4.046 5.544-4.945 15.283-4.194 16.932-11.537 13.637 2.247 13.637 2.247z" class="prefix__cls-23" data-name="Path 2248" transform="translate(866.817 -4407.375)"/>
                    <path id="prefix__Path_2249" d="M-858.528 4385.214s1.82 22.714 3.96 50.017c2.908 37.089 6.405 82.647 6.752 91.278.6 14.987 3 38.959 3 38.959s5.691 5.695 17.081 3.294c0 0 10.15-34.22 13.05-70.429l.135-1.79c2.7-36.859 6.891-114.477 6.891-114.477z" class="prefix__cls-24" data-name="Path 2249" transform="translate(865.498 -4373.078)"/>
                    <path id="prefix__Path_2250" d="M-814.687 4498.334l.135-1.79c2.7-36.859 6.891-114.477 6.891-114.477l-50.867 3.146s1.82 22.714 3.96 50.017" class="prefix__cls-24" data-name="Path 2250" transform="translate(865.498 -4373.078)"/>
                    <path id="prefix__Path_2251" d="M-848.64 4386.209s32.814 82.26 54.391 120.919 28.319 49.445 28.319 49.445 12.362-4.944 13.485-8.316c0 0-8.25-74.63-22.7-92.825-8.164-10.28-17.755-41.129-18.2-51.918s-2.922-32.14-2.922-32.14z" class="prefix__cls-24" data-name="Path 2251" transform="translate(863.924 -4371.376)"/>
                </g>
                <path id="prefix__Path_2252" d="M-928.8 4375.478s-11.579 5.558-13.138 6.984-5.406 8.43-5.111 8.958.872.69 1.922-.035 3.994-3.759 4.1-3.2-7.861 9.942-6.452 11.926 9.4 1.4 13.961-1.847 9.116-15.171 9.8-15.823c5.827-5.519-5.082-6.963-5.082-6.963z" class="prefix__cls-25" data-name="Path 2252" transform="translate(947.639 -4213.525)"/>
                <path id="prefix__Path_2253" d="M-926.474 4361.7c-3.214-2.8-3.3-3.505-3.3-3.505s20.534-35.506 22.314-38.921 12.784-56.74 12.784-56.74l38.045-11.031s-26.8 69.294-31.478 77.857c-7.734 14.152-32.98 34.98-32.98 34.98a11.877 11.877 0 0 1-5.385-2.64z" class="prefix__cls-25" data-name="Path 2253" transform="translate(944.795 -4193.792)"/>
                <path id="prefix__Path_2254" d="M-895.792 4299.649l12.371 9.558a63.279 63.279 0 0 1 6.2 7.251c9.382-22.568 25.775-64.956 25.775-64.956l-38.045 11.031s-4.131 20.018-7.74 36.31c.478.257.959.528 1.439.806z" class="prefix__cls-23" data-name="Path 2254" transform="translate(939.616 -4193.792)"/>
                <path id="prefix__Path_2255" d="M-871.71 4231.637s-13.389 23.557-26.476 26.632c0 0 .545-7.912 3.732-13.326-1.3-1.539-2.451-2.954-3.443-4.219a78.789 78.789 0 0 1-4.86-6.805l4.441-11.94 3.013-8.1a38.994 38.994 0 0 0 4.709 6.786c8.578 9.859 18.884 10.972 18.884 10.972z" class="prefix__cls-25" data-name="Path 2255" transform="translate(940.495 -4187.802)"/>
                <path id="prefix__Path_2256" d="M-910.159 4232.479s20-7.8 14.957-20.181-5.866-21.73-18.852-17.274-13.525 10.187-12.846 14.729 11.408 24.436 16.741 22.726z" class="prefix__cls-25" data-name="Path 2256" transform="translate(944.367 -4184.622)"/>
                <path id="prefix__Path_2257" d="M-802.333 4355.263c-8.068 11.6-68.407 27.1-67.685 19.074a87.48 87.48 0 0 0-.008-15.838q-.228-2.584-.641-5.473c-1.539-10.558-5.176-24.121-13.3-39.829q-.912-1.767-1.9-3.565a121.746 121.746 0 0 1-8.364-18.794c-4.182-12.08-5.872-23.641-3.757-31.2a.387.387 0 0 1 .031-.1c12.61-5.833 17.5-28.448 17.5-28.448s43.027 7.723 67.132 65.074c0 0 2.315 6.3 4.958 14.844 3.213 10.366 6.913 24.033 7.555 33.782.312 4.633-.072 8.382-1.521 10.473z" class="prefix__cls-23" data-name="Path 2257" transform="translate(939.88 -4190.542)"/>
                <path id="prefix__Path_2258" d="M-893.742 4187.54c.14-.278.547-.572 1.54-.877a4.155 4.155 0 0 0-2.014-.075c-.561-1.371-1.926-3.7-4.487-3.722a3.153 3.153 0 0 1 2.01 1.853c-3.508-2.225-10.013-2.871-26.25 2.538-21.4 7.128-10.708 19.55-7.465 20.546s9.214-5.4 14.584-6.269 8.275 6.609 10.323 7.229.883-1.082 3.027-2.787 3.375 2.306 3.329 5.122 4.134 5.487 4.134 5.487l2.452-4.5c2.451-4.5 1.784-20.823-.557-23.761-.209-.257-.415-.524-.626-.784z" class="prefix__cls-23" data-name="Path 2258" transform="translate(945.779 -4182.866)"/>
                <path id="prefix__Path_2259" d="M-765.49 4368.162s-1.17 9.823-.888 11.426 2.153 6.371 2.618 6.4 1.878.082 1.84-.9-.676-1.9-.266-1.738.53 3.871 2.4 3.774 7.385-2.173 7.16-6.479-6.1-12.193-6.235-12.909c-1.185-6.065-6.629.426-6.629.426z" class="prefix__cls-25" data-name="Path 2259" transform="translate(918.793 -4211.88)"/>
                <path id="prefix__Path_2260" d="M-780.125 4350.824c-4.119 1.888-5.648-.038-5.648-.038s-21.683-49.057-24.21-52.279-49.13-13.238-49.13-13.238-18.026-6.891-18.739-17.824c-.619-9.5 4.776-15.34 10.683-18.861a19.941 19.941 0 0 1 22.42 1.448c14.529 11.284 43.332 33.981 47.967 40.135 10.317 13.7 21.751 56.638 21.751 56.638a14.26 14.26 0 0 1-5.094 4.019z" class="prefix__cls-25" data-name="Path 2260" transform="translate(936.538 -4192.884)"/>
                <path id="prefix__Path_2261" d="M-828.84 4292.291a45.808 45.808 0 0 1 12.58-19.615c-9.787-8.033-21.022-16.844-28.488-22.643a19.94 19.94 0 0 0-22.42-1.448c-5.907 3.521-11.3 9.359-10.683 18.861.712 10.934 18.739 17.824 18.739 17.824s16.386 3.521 30.252 7.061z" class="prefix__cls-23" data-name="Path 2261" transform="translate(936.538 -4192.885)"/>
            </g>
            <g id="prefix__Group_3614" data-name="Group 3614" transform="translate(-1067.621 4293.834)">
                <g id="prefix__Group_3613" data-name="Group 3613">
                    <path id="prefix__Path_2262" d="M-993.461 4478.595s-10.641 45.116-9.635 55.338c1.355 13.771 1.856 51.19 1.856 51.19h10.578s9.826-30.428 7.352-50.235c-1.334-10.679 24.226-57.6 24.226-57.6z" class="prefix__cls-25" data-name="Path 2262" transform="translate(1057.361 -4343.728)"/>
                    <path id="prefix__Path_2263" d="M-956.97 4481.982l-11.606 29.142-6.505 16.337q-1.96.261-3.795.375c-17.407 1.079-26.748-7.286-26.748-7.286l7.8-36.117z" class="prefix__cls-23" data-name="Path 2263" transform="translate(1057.753 -4344.475)"/>
                    <path id="prefix__Path_2264" d="M-976.483 4480.343s20.173 55.583 25.524 62.476 33.278 36.062 33.278 36.062l5.418-6.13a125.42 125.42 0 0 0-8.391-23.3c-4.416-8.754-12.834-12.3-13.228-14.565-2.585-14.916-10.032-57.6-10.032-57.6z" class="prefix__cls-25" data-name="Path 2264" transform="translate(1053.114 -4343.728)"/>
                    <path id="prefix__Path_2265" d="M-1020.44 4409.01s-9.851 27.71-11.838 29.967-21.909 17.094-21.909 17.094l2.565 4.6s26.33-11.8 30.7-15.963 16.74-37.112 16.74-37.112z" class="prefix__cls-25" data-name="Path 2265" transform="translate(1065.483 -4332.635)"/>
                    <path id="prefix__Path_2266" d="M-1056.325 4465.247a11.9 11.9 0 0 1-4.1.992c-2.042.042-6.467 2.309-5.856 3.07s2.1-.3 2.3.75-4.5 4.77-3.5 5.833 3.165 1.249 6.883-.718a29.97 29.97 0 0 0 6.839-5.325z" class="prefix__cls-25" data-name="Path 2266" transform="translate(1067.621 -4341.812)"/>
                    <path id="prefix__Path_2267" d="M-974.255 4485.625l12.193 39.508s23.05-3.406 30.81-15c0 0-6.286-30.192-12.305-32.932s-30.698 8.424-30.698 8.424z" class="prefix__cls-23" data-name="Path 2267" transform="translate(1052.76 -4343.646)"/>
                    <path id="prefix__Path_2268" d="M-954.8 4409.3s19.277 22.211 20.264 25.051 4.1 27.484 4.1 27.484l5.269.031s2.68-28.73 1.21-34.582-24.071-32.834-24.071-32.834z" class="prefix__cls-25" data-name="Path 2268" transform="translate(1049.663 -4330.542)"/>
                    <path id="prefix__Path_2269" d="M-972.35 4338.769c.394-5.3-1.642-8.856-4.551-12.134-2.79-3.144-5.977-2.808-9.474-5.3-3.292-2.343-8.91-3.353-13.159-2.7-13.6 2.089-24.089 12.221-19.236 25.922 1.542 4.354 1.365 8 5.805 12.682 5.542 5.847 11.867 10.249 20.73 8.888 4.7-.723 8.657-2.441 11.755-6.426 1.688-2.171 4.485-2.835 5.911-5.135 2.883-4.64 1.79-10.009 2.219-15.797z" class="prefix__cls-23" data-name="Path 2269" transform="translate(1060.037 -4318.444)"/>
                    <path id="prefix__Path_2270" d="M-1000.106 4383.682l18.274 6.057 1.589-12.277a36.46 36.46 0 0 1-4.784-10.25 45.249 45.249 0 0 1-1.837-9.622l-12.719 9.189a26.39 26.39 0 0 1 1.035 3.076 23.252 23.252 0 0 1 .9 7.423 10.354 10.354 0 0 1-2.458 6.404z" class="prefix__cls-25" data-name="Path 2270" transform="translate(1056.875 -4324.674)"/>
                    <path id="prefix__Path_2271" d="M-960.553 4448.386c1.9 10.787 10.949 22.415 17.67 24.89.866-.258 1.333-.412 1.333-.412a4.626 4.626 0 0 0 2.82-4.978 4.737 4.737 0 0 0-.2-.8l-10.353-30.164-.517-15.862-.2-.395s-13.912 8.664-10.553 27.721z" data-name="Path 2271" transform="translate(1050.662 -4334.715)" style="fill:#4a75cb"/>
                    <path id="prefix__Path_2272" d="M-1000.789 4369.609s17.67-.551 16.162-12.829-9.954-19.08-14.765-18.249c-9.595 1.66-10.584 5.792-11.078 10.012s1.565 21.432 9.681 21.066z" class="prefix__cls-25" data-name="Path 2272" transform="translate(1058.535 -4321.63)"/>
                    <path id="prefix__Path_2273" d="M-996.1 4366.2s-.144 1.582-3.985 1.884c0 0-3.225.256-3.367-1.441a10.393 10.393 0 0 1 7.352-.443z" class="prefix__cls-27" data-name="Path 2273" transform="translate(1057.408 -4325.976)"/>
                    <path id="prefix__Path_2274" d="M-926.2 4474.591a11.9 11.9 0 0 1-1.155 4.06c-.969 1.8-1.171 6.765-.208 6.607s.775-1.974 1.787-1.634 1.939 6.264 3.356 5.918 2.644-2.141 2.761-6.346a29.957 29.957 0 0 0-1.271-8.574z" class="prefix__cls-25" data-name="Path 2274" transform="translate(1045.427 -4343.299)"/>
                    <path id="prefix__Path_2275" d="M-948.3 4460.8l-10.353-30.164-.517-15.863-.019-.588c2.623-3.056 13.925-9.34 13.925-9.34s-9.683-15.066-14.883-19.764c-1.5-1.348-4.048-2.24-6.933-2.825a55.011 55.011 0 0 0-7.407-.919c-4.833-.306-8.909-.12-8.909-.12-2.169 3.033-6.658 7.695-12.459 7.829-4.361.1-5.38-2.022-5.679-4.469-6.028 1.725-10.763 6.763-10.763 6.763l-7.666 17.226s4.8 5.524 10.771 6.25l5.66 42.784c.322 4.437-2.157 14.972 2.258 15.472 19.634 2.22 43.233-4.34 49.027-6.083.866-.258 1.333-.412 1.333-.412a4.626 4.626 0 0 0 2.82-4.978 4.742 4.742 0 0 0-.206-.799z" class="prefix__cls-25" data-name="Path 2275" transform="translate(1060.037 -4328.426)"/>
                    <g id="prefix__Group_3609" data-name="Group 3609" transform="translate(35.629 222.297)">
                        <path id="prefix__Path_2276" d="M-1005.514 4582.824s5.848 1.6 17.278.817c0 0-1.858 10.7-.669 13.376s4.608 10.256-.594 11.741c-4.121 1.178-22.235 1.05-29.584.945a6.246 6.246 0 0 1-5.81-4.084c-.823-2.293-.5-5.051 4.182-6.818l10.541-2.817c6.03-3.053 4.656-13.16 4.656-13.16z" class="prefix__cls-23" data-name="Path 2276" transform="translate(1025.247 -4582.824)"/>
                        <g id="prefix__Group_3607" data-name="Group 3607" transform="translate(28.632 23.205)">
                            <circle id="prefix__Ellipse_137" cx="3.678" cy="3.678" r="3.678" class="prefix__cls-23" data-name="Ellipse 137" transform="rotate(-22.65 7.073 1.417)"/>
                            <circle id="prefix__Ellipse_138" cx="2.601" cy="2.601" r="2.601" class="prefix__cls-23" data-name="Ellipse 138" transform="rotate(-79.63 5.03 2.38)"/>
                        </g>
                        <g id="prefix__Group_3608" data-name="Group 3608" transform="translate(2.789 22.814)">
                            <circle id="prefix__Ellipse_139" cx="3.678" cy="3.678" r="3.678" class="prefix__cls-23" data-name="Ellipse 139" transform="rotate(-45 6.28 2.601)"/>
                            <path id="prefix__Path_2277" d="M-1018.836 4615.651a2.6 2.6 0 0 1 2.6-2.6 2.6 2.6 0 0 1 2.6 2.6 2.6 2.6 0 0 1-2.6 2.6 2.6 2.6 0 0 1-2.6-2.6z" class="prefix__cls-23" data-name="Path 2277" transform="translate(1021.438 -4610.449)"/>
                        </g>
                    </g>
                    <g id="prefix__Group_3612" data-name="Group 3612" transform="translate(112.14 211.542)">
                        <path id="prefix__Path_2278" d="M-926.278 4577.489s5.909-1.354 15.607-7.456c0 0 3.428 10.306 5.741 12.1s8.912 6.854 5.032 10.625c-3.073 2.987-19.091 11.446-25.614 14.833a6.245 6.245 0 0 1-7.051-.848c-1.81-1.63-2.831-4.212.458-7.987l7.952-7.469c3.869-5.545-2.125-13.798-2.125-13.798z" class="prefix__cls-23" data-name="Path 2278" transform="translate(934.252 -4570.033)"/>
                        <g id="prefix__Group_3610" data-name="Group 3610" transform="translate(29.63 21.969)">
                            <path id="prefix__Path_2279" d="M-898.573 4601.581a3.678 3.678 0 0 1 1.5-4.981 3.679 3.679 0 0 1 4.982 1.5 3.679 3.679 0 0 1-1.5 4.981 3.678 3.678 0 0 1-4.982-1.5z" class="prefix__cls-23" data-name="Path 2279" transform="translate(899.012 -4596.161)"/>
                            <path id="prefix__Path_2280" d="M-897.42 4601.275a2.6 2.6 0 0 1 1.06-3.521 2.6 2.6 0 0 1 3.522 1.06 2.6 2.6 0 0 1-1.06 3.522 2.6 2.6 0 0 1-3.522-1.061z" class="prefix__cls-23" data-name="Path 2280" transform="translate(898.808 -4596.366)"/>
                        </g>
                        <g id="prefix__Group_3611" data-name="Group 3611" transform="translate(7.209 34.014)">
                            <path id="prefix__Path_2281" d="M-925.24 4615.906a3.679 3.679 0 0 1 1.5-4.981 3.678 3.678 0 0 1 4.981 1.5 3.677 3.677 0 0 1-1.5 4.98 3.678 3.678 0 0 1-4.981-1.499z" class="prefix__cls-23" data-name="Path 2281" transform="translate(925.678 -4610.485)"/>
                            <path id="prefix__Path_2282" d="M-924.087 4615.6a2.6 2.6 0 0 1 1.06-3.521 2.6 2.6 0 0 1 3.522 1.06 2.6 2.6 0 0 1-1.06 3.522 2.6 2.6 0 0 1-3.522-1.061z" class="prefix__cls-23" data-name="Path 2282" transform="translate(925.474 -4610.689)"/>
                        </g>
                    </g>
                </g>
            </g>
            <g id="prefix__Group_3616" data-name="Group 3616" transform="translate(-814.513 4323.254)">
                <path id="prefix__Path_2283" d="M-703.453 4415.881s18.644 12.109 24.625 18.254c0 0 22.967 7.2 24.492 7.81s-.778 5.513-.778 5.513-21.88-1.543-28.571-4.511-29.075-12.038-30.5-19.615 10.732-7.451 10.732-7.451z" class="prefix__cls-25" data-name="Path 2283" transform="translate(758.273 -4363.372)"/>
                <path id="prefix__Path_2284" d="M-730.1 4582.727l-4.178 22.244h-7.583l-1.96-27.144z" class="prefix__cls-25" data-name="Path 2284" transform="translate(762.972 -4389.15)"/>
                <path id="prefix__Path_2285" d="M-689.621 4581.277l4.741 24.51-6.646.276-12.637-23.895z" class="prefix__cls-25" data-name="Path 2285" transform="translate(756.659 -4389.7)"/>
                <path id="prefix__Path_2286" d="M-734.371 4608.9a8.776 8.776 0 0 0 5.2 4 8.514 8.514 0 0 1 5.118 3.144 2 2 0 0 1-1.6 3.18h-17.263a2.482 2.482 0 0 1-2.47-2.731c.129-1.279.263-2.769.322-3.91.127-2.493 2.814-4.748 2.814-4.748a17.741 17.741 0 0 0 3.293 1.5 12.244 12.244 0 0 0 4.586-.435z" class="prefix__cls-23" data-name="Path 2286" transform="translate(763.223 -4393.928)"/>
                <path id="prefix__Path_2287" d="M-683.534 4608.893a8.768 8.768 0 0 0 5.18 4.034 8.52 8.52 0 0 1 5.1 3.174 2 2 0 0 1-1.623 3.17l-17.263-.1a2.481 2.481 0 0 1-2.454-2.744c.136-1.279.279-2.768.344-3.909.142-2.492 2.842-4.731 2.842-4.731a17.708 17.708 0 0 0 3.284 1.52 12.206 12.206 0 0 0 4.59-.414z" class="prefix__cls-23" data-name="Path 2287" transform="translate(755.138 -4393.919)"/>
                <path id="prefix__Path_2288" d="M-689.01 4567.476a82.263 82.263 0 0 1-15.105 2.959c-7.461.679-15.58 0-19-5.164-.992-1.5-1.551-4.094-1.786-7.453-1.43-20.557 9.431-69.636 9.431-69.636h12.67c0 1.01 13.79 79.294 13.79 79.294z" class="prefix__cls-24" data-name="Path 2288" transform="translate(759.981 -4374.881)"/>
                <path id="prefix__Path_2289" d="M-748.229 4491.571s-5.7 38.223-8.269 79.019c0 0 17.885 7.351 34.486 1.469l3.033-77.791z" class="prefix__cls-24" data-name="Path 2289" transform="translate(764.99 -4375.42)"/>
                <path id="prefix__Path_2290" d="M-741.308 4358.757s-1.152-5.079-5.955-5.325c0 0 1.531.915 1.777 1.881a7.389 7.389 0 0 0-7.108-.776c-4.32 1.564-10.731 5.961-7.5 16.191s-3.362 12.763-6.011 19.362 6.367 7.867 4.5 13.019 3.693 17.319 17.84 12 17.361-25.725 11.35-30.709-8.893-25.643-8.893-25.643z" class="prefix__cls-23" data-name="Path 2290" transform="translate(766.597 -4353.432)"/>
                <path id="prefix__Path_2291" d="M-733.517 4359.425s-6.348-.848-10.288 3.268c-2.127 2.221.068 5.416.068 5.416z" class="prefix__cls-25" data-name="Path 2291" transform="translate(763.117 -4354.374)"/>
                <path id="prefix__Path_2292" d="M-714.354 4369.257c-.121-.2-5.169-8.183-14.6-9.775a13.956 13.956 0 0 0-15.975 11.773c-1.18 7.7.024 17.677 12.586 21.271z" class="prefix__cls-23" data-name="Path 2292" transform="translate(763.205 -4354.365)"/>
                <g id="prefix__Group_3615" data-name="Group 3615" transform="translate(25.027 12.703)">
                    <path id="prefix__Path_2293" d="M-714.617 4408.267l-14.216 8.444-3.593-10.006a31.313 31.313 0 0 0 2.126-9.48 38.877 38.877 0 0 0-.23-8.41l12.362 5.368a22.744 22.744 0 0 0-.3 2.771 19.977 19.977 0 0 0 .615 6.393 8.891 8.891 0 0 0 3.236 4.92z" class="prefix__cls-25" data-name="Path 2293" transform="translate(736.131 -4371.767)"/>
                    <path id="prefix__Path_2294" d="M-715.5 4396.117s-13.352 4.449-18.723-6.051c-5.8-11.332-.791-20.175 3.784-21.041 9.123-1.727 14.688 1.44 16.539 5.043s5.775 19.661-1.6 22.049z" class="prefix__cls-25" data-name="Path 2294" transform="translate(736.833 -4368.54)"/>
                    <path id="prefix__Path_2295" d="M-718.319 4394.118s.658 1.365 4.19.351c0 0 2.966-.851 2.524-2.413a9.912 9.912 0 0 0-6.714 2.062z" class="prefix__cls-27" data-name="Path 2295" transform="translate(733.886 -4372.277)"/>
                </g>
                <path id="prefix__Path_2296" d="M-699.236 4421.41l-11.332-9.208v.007a9.686 9.686 0 0 0-5.216-2.253c-.8-.1-2.478-.412-3.415-.525.159 2.11.157 3.814-3.531 4.465-4.91.862-9.787-2.106-12.123-4.3a40.7 40.7 0 0 0-8.758 2.412 7.982 7.982 0 0 0-4.042 3.538 7.965 7.965 0 0 0-.958 4.807l3.774 32.515s-4.512 27.686-3.737 27.759c5.17.494 27.784 5.033 43.95-.134 2.611-.836-3.659-15.494-2.4-45.479 8.968-5.37 7.788-13.604 7.788-13.604z" class="prefix__cls-25" data-name="Path 2296" transform="translate(763.742 -4362.346)"/>
                <path id="prefix__Path_2297" d="M-725.377 4369.536s.177 10.484-5.865 13.938c0 0 2.386-4.94 1.581-7.958 0 0-1.561 9.352-6.332 10.983s-7.185-17.366 2.688-21.186 19.608.717 20.772 7.395.278 8.07.278 8.07-4.622-12.704-13.122-11.242z" class="prefix__cls-23" data-name="Path 2297" transform="translate(762.386 -4355.101)"/>
                <path id="prefix__Path_2298" d="M-751.023 4426.776s-6.738 25.427-5.5 30.1 14.349 15.5 16.535 16.212l1.577-4.164s-9.98-13.764-9.131-15.25c1.826-3.2 9.131-21.961 9.131-21.961z" class="prefix__cls-25" data-name="Path 2298" transform="translate(765.018 -4365.106)"/>
                <path id="prefix__Path_2299" d="M-740.131 4434.361s-7.741 1.353-15.293-6.453c0 0 6.416-18.769 14.412-14.967s6.074 16.894.881 21.42z" class="prefix__cls-25" data-name="Path 2299" transform="translate(764.819 -4362.824)"/>
                <path id="prefix__Path_2300" d="M-735.256 4476.908s6.608 1.3 6.888 3.431c.224 1.708-2.781 4.5-4.4 3.915s-4.068-3.182-4.068-3.182z" class="prefix__cls-25" data-name="Path 2300" transform="translate(761.859 -4373.086)"/>
                <path id="prefix__Path_2301" d="M-643.132 4446.195s9.713-5.021 10.576-3.229-1.195 7.1-3.252 7.766-8.1.976-8.1.976z" class="prefix__cls-25" data-name="Path 2301" transform="translate(747.068 -4367.622)"/>
            </g>
            <g id="prefix__Group_3617" data-name="Group 3617" transform="translate(-735.507 4163.84)">
                <path id="prefix__Path_2302" d="M-630.292 4247.2c-1.287 2.278-.627 45.427-1.9 49.061-4.071 11.6-1.018 41.2-3.209 43.987s-4.579 8.763-3.384 11.55 1.563 6.364 4.266 6.269 18.7-95.258 18.883-97.733-14.656-13.134-14.656-13.134z" class="prefix__cls-25" data-name="Path 2302" transform="translate(667.297 -4177.109)"/>
                <path id="prefix__Path_2303" d="M-549.416 4327.177s3.451 4.248 3.186 6.24-3.186 6.77-3.186 6.77-7.435-15-6.9-16.2 5.044-2.124 5.044-2.124z" class="prefix__cls-25" data-name="Path 2303" transform="translate(654.124 -4188.995)"/>
                <path id="prefix__Path_2304" d="M-646.079 4564.3l7.134 2.657s30.989-42.979 34.8-80.794a57.418 57.418 0 0 0-1.02-19.333l.833-4.788c.245-1.427.547-3.146.891-5.115 1.007-5.772 2.394-13.67 3.979-22.664 3.646-20.7 8.37-47.152 12.039-66.6l-1.921-.617-20.8-6.71-4.3-13.654-15.488-4.077s-3.46 6.769-6.553 38.74c-.571 4.195-1.089 8.819-1.479 13.834a273.746 273.746 0 0 0 1.474 56.005q1.066 8.335 2.72 17.188c.816 4.322.938 10.211.594 16.974-1.556 30.918-12.903 78.954-12.903 78.954z" class="prefix__cls-23" data-name="Path 2304" transform="translate(668.407 -4192.296)"/>
                <path id="prefix__Path_2305" d="M-636.422 4395.184l33.632 66.863c.245-1.427.547-3.146.891-5.115 1.007-5.772 2.394-13.67 3.979-22.664 3.646-20.7 8.37-47.152 12.039-66.6l-1.921-.617-20.8-6.71-4.3-13.654-15.488-4.077s-3.46 6.769-6.553 38.74c-.571 4.194-1.089 8.818-1.479 13.834z" class="prefix__cls-23" data-name="Path 2305" transform="translate(666.87 -4192.296)"/>
                <path id="prefix__Path_2306" d="M-618.826 4349.717l.779-6.676c13.045 3.464 47.9-9.681 47.9-9.681s12.636 11.107 10.978 37.733c-.811 13-2.29 68.22-3.834 84.561-.559 5.922-1.049 10.137-1.248 11.82a.034.034 0 0 0 0 .017 2.338 2.338 0 0 0 .379 1.447 76.658 76.658 0 0 1 5.7 11.992c15.164 40.407-2.336 90.169-2.336 90.169l-4.54-1.83s-9.958-55.38-18.049-79.845a48.513 48.513 0 0 0-3.9-9.359c-3.518-5.678-6.783-14.956-9.746-25.99-5.6-20.862-10.109-48-13.109-68.949-.418.021-8.974-35.409-8.974-35.409z" class="prefix__cls-23" data-name="Path 2306" transform="translate(664.069 -4190.824)"/>
                <path id="prefix__Path_2307" d="M-562.207 4232.591a1.069 1.069 0 0 1-.06.132c-3.964 9.212-11.49 21.209-24.121 22.485a26.916 26.916 0 0 1-13-2.189 40.657 40.657 0 0 1-13.042-8.24 110.856 110.856 0 0 1 11.939-17.567c.013-.011.013-.015.013-.015s.829-.057 2.2-.132c.549-.484.974-2.066 1.3-4.133.22-1.367.4-2.948.537-4.563.151-1.743.266-3.531.345-5.129.161-3.151.2-5.587.2-5.587l17.783-1.884 1.057-.109a55.653 55.653 0 0 0 .27 13.606 27.478 27.478 0 0 0 1.635 6.249 8.412 8.412 0 0 0 1.48 2.521c1.347.291 2.971.679 4.5 1.116a18.847 18.847 0 0 1 6.893 3.393c.033.016.056.029.071.046z" class="prefix__cls-25" data-name="Path 2307" transform="translate(663.05 -4170.497)"/>
                <path id="prefix__Path_2308" d="M-552.01 4170.084c.6-.763 7.412-8.762 20.6.242 0 0-6.879-3.891-10.013-1.913 0 0 6.829-.273 9.526 3.408s.243 11.338-1.221 13.373-8.2 7.122-10.829 6.041a8.415 8.415 0 0 1-2.7-1.977 37.726 37.726 0 0 1-.537 4.353c-2.6 14.3-15.459 20.714-18.968 16.386-2.251-2.776-6.531 1.4-6.531 1.4l-10.978-41.8s25.053-13.273 31.651.487z" class="prefix__cls-23" data-name="Path 2308" transform="translate(658.472 -4163.84)"/>
                <path id="prefix__Path_2309" d="M-564.812 4191.318c-1.111 3.966-3.595 8.6-5.906 14.224-3.8 9.234-15.148 7.725-21.81 5.9h-.008a42.672 42.672 0 0 1-5.028-1.7c-5.411-2.73 1.419-26.208 4.345-30.224s7.688-8.025 21.08-1.6c7.765 3.726 8.855 7.923 7.327 13.4z" class="prefix__cls-25" data-name="Path 2309" transform="translate(661.007 -4165.544)"/>
                <path id="prefix__Path_2310" d="M-580.873 4616.684h35.934s.861-5.477-1.016-9.631c-1.8-3.987-4.616-5.8-3.941-10.623a12.943 12.943 0 0 1-11.2 4.284c-.637 1.032-4.109 6.555-6.236 8.083-2.346 1.687-12.818 1.086-13.541 7.887z" class="prefix__cls-23" data-name="Path 2310" transform="translate(658.028 -4232.698)"/>
                <path id="prefix__Path_2311" d="M-672.634 4616.989h35.934s1.343-5.732-1.016-9.631c-2.089-3.451-1.288-5.417.258-8.271a13.954 13.954 0 0 1-6.052 1.139 12.649 12.649 0 0 1-5.344-1.879c-1.546 1.763-8.169 9.268-10.239 10.756-2.346 1.686-12.817 1.085-13.541 7.886z" class="prefix__cls-23" data-name="Path 2311" transform="translate(672.634 -4233.003)"/>
                <path id="prefix__Path_2312" d="M-589.025 4171.679c4.973-2.663 7.12-.75 8.029 1.038 14.393-1.636 18.042 11.015 18.042 11.015a27.635 27.635 0 0 0 2.162 18.535s-4.908.811-12.983-5.215c-2.466-1.842-4.124-4.812-5.241-8.048a54.187 54.187 0 0 0 4.3 14.076c-8.737-9.41-6.912-26.186-6.692-27.947-1.8.639-5.43 2.136-7.248 4.319-2.47 2.97-5.831 9.787-7.778 8.708.002.001-.049-12.489 7.409-16.481z" class="prefix__cls-23" data-name="Path 2312" transform="translate(660.504 -4164.878)"/>
                <path id="prefix__Path_2313" d="M-556.377 4311.819c.7 1.693 1.5 3.691 2.274 5.874-.028.083-.039.124-.039.124-23.589-18.053.147-54.744.147-54.744a31.447 31.447 0 0 0 2.9 4.791 1.976 1.976 0 0 0 .873.789 2.208 2.208 0 0 1 .927.892c-2.1 6.364-5.44 18.522-8.121 30.04a19.923 19.923 0 0 0-.028 8.84 20.207 20.207 0 0 0 1.067 3.394z" class="prefix__cls-24" data-name="Path 2313" transform="translate(655.436 -4179.635)"/>
                <path id="prefix__Path_2314" d="M-544.948 4241.213s-11.563 10.2-12.581 14.665c-.826 3.624 21.188 29.051 32.827 39.431l-26.764 13.72 1.859 5.31s39.63-4.966 41.984-14.7c-3.309-27.934-37.325-58.426-37.325-58.426z" class="prefix__cls-25" data-name="Path 2314" transform="translate(654.316 -4176.156)"/>
                <path id="prefix__Path_2315" d="M-543.5 4249.7c-6.172-9.16-20.042-13.764-20.042-13.764a57.665 57.665 0 0 0-8.949-2.708s-.163.569-.494 1.485c-2.222 6.042-12.994 14.316-14.8 15.7-2.254 1.716-24.309.987-24.687-2.545-.374-3.468 8.328-16.1 8.65-16.583.013-.012.013-.021.013-.021-10.3.422-14.58 2.286-14.58 2.286s-8.07 2.38-15.006 15.746a32.874 32.874 0 0 0 8.574 4.415 22.275 22.275 0 0 0-1.059 7.2 8.773 8.773 0 0 0 .092 1.441c8.8 46.411-5.293 64.739-5.293 64.739-4.4 8.12 65.276 20.725 68.164 12.951a13.121 13.121 0 0 0 2-6.826c.347-6.256-1.847-14.2-4.138-20.593-.776-2.183-1.569-4.182-2.274-5.875a20.234 20.234 0 0 1-1.068-3.392 19.928 19.928 0 0 1 .028-8.842c2.681-11.518 6.026-23.677 8.121-30.04a2.2 2.2 0 0 0-.927-.893 1.721 1.721 0 0 1-.618-.462c14.302-4.363 18.293-13.419 18.293-13.419z" class="prefix__cls-24" data-name="Path 2315" transform="translate(666.389 -4174.573)"/>
            </g>
        </g>
        <g id="prefix__Group_2393" data-name="Group 2393" transform="translate(2527.402 -2520.661)">
            <g id="prefix__Group_2341" data-name="Group 2341" transform="translate(-1177.402 3836.661)">
                <path id="prefix__Path_1351" d="M-1158.809 3862.245a290.567 290.567 0 0 0 4.482 29.15c.791 3.662 1.67 7.295 2.666 10.868.732 2.7 1.552 5.362 2.432 8 1.26 3.81 2.667 7.529 4.248 11.134 7.324 16.875 18.307 31.642 34.979 42.038 34.745-21.65 44.675-62.4 48.778-101.19-16.552-5.65-28.271-7.559-48.778-8.2-20.51.642-32.255 2.546-48.807 8.2z" data-name="Path 1351" transform="translate(1168.759 -3844.74)" style="fill-rule:evenodd;stroke:#01272c;fill:#eaf9fb"/>
                <path id="prefix__Path_1352" d="M-1109.988 3854.031c20.492.664 32.235 2.55 48.769 8.2l-3.429 2.233v-.021c-14.783-4.861-25.841-6.587-45.343-7.224-19.5.637-30.56 2.363-45.342 7.224v.021l-3.43-2.233c16.537-5.65 28.278-7.536 48.775-8.2z" class="prefix__cls-29" data-name="Path 1352" transform="translate(1168.738 -3844.735)"/>
                <path id="prefix__Path_1353" d="M-1118.652 3966.111c42.814-23.292 54.446-70.754 58.75-118.242-21.726-8.073-35.006-10.463-58.75-11.208-23.743.744-37.024 3.134-58.75 11.208 4.302 47.489 15.936 94.95 58.75 118.242zm0-120.154c20.5.665 32.244 2.55 48.789 8.207-4.116 38.8-14.023 79.545-48.789 101.19-34.766-21.646-44.676-62.387-48.79-101.19 16.542-5.657 28.286-7.543 48.79-8.207z" data-name="Path 1353" transform="translate(1177.402 -3836.661)" style="fill:#dcecfe;fill-rule:evenodd;stroke:#01272c"/>
                <path id="prefix__Path_1354" d="M-1158.771 3869.356l3.429 2.233c3.767 33.525 12.64 73.672 45.341 95.18v3.783c-34.766-21.646-44.676-62.387-48.79-101.19z" class="prefix__cls-29" data-name="Path 1354" transform="translate(1168.751 -3851.859)"/>
                <path id="prefix__Path_1355" d="M-1022.281 3871.589l3.43-2.233.02.007c-4.116 38.8-14.023 79.544-48.789 101.19v-3.783c32.699-21.508 41.571-61.657 45.339-95.181z" class="prefix__cls-29" data-name="Path 1355" transform="translate(1126.371 -3851.859)"/>
            </g>
        </g>
    </g>
</svg>
