<svg xmlns="http://www.w3.org/2000/svg" width="193" height="60" viewBox="0 0 193 60">
  <defs>
    <style>
      .cls-1 {
        fill: #fff;
      }
    </style>
  </defs>
  <g id="app-store-badge" transform="translate(-44.2 -19)">
    <path id="Path_10827" data-name="Path 10827" d="M231.169,79H50.231A6.033,6.033,0,0,1,44.2,73V25a6.033,6.033,0,0,1,6.031-6H231.169a6.033,6.033,0,0,1,6.031,6V73A6.033,6.033,0,0,1,231.169,79Z" transform="translate(0 0)"/>
    <path id="Path_10828" data-name="Path 10828" class="cls-1" d="M79.6,42.42c0-4.654,3.9-6.906,4.054-7.056A9.355,9.355,0,0,0,76.9,31.61c-2.853-.3-5.705,1.651-7.056,1.651-1.5,0-3.753-1.651-6.156-1.651a8.92,8.92,0,0,0-7.657,4.654c-3.3,5.705-.9,14.113,2.252,18.767,1.651,2.252,3.453,4.8,5.855,4.654s3.3-1.5,6.156-1.5,3.6,1.5,6.156,1.5,4.2-2.252,5.705-4.5a17.209,17.209,0,0,0,2.552-5.255C84.555,49.777,79.6,47.975,79.6,42.42Z" transform="translate(5.136 6.274)"/>
    <path id="Path_10829" data-name="Path 10829" class="cls-1" d="M69.922,31.605A9.311,9.311,0,0,0,71.874,25.6a8.041,8.041,0,0,0-5.4,2.853,7.592,7.592,0,0,0-1.952,5.705A7.132,7.132,0,0,0,69.922,31.605Z" transform="translate(10.16 3.299)"/>
    <path id="Path_10830" data-name="Path 10830" class="cls-1" d="M99.415,56.568h-3.3l-1.8-5.705H88l-1.651,5.705H83.2L89.506,37.2h3.9ZM93.71,48.46l-1.651-5.1c-.15-.45-.45-1.8-1.051-3.6h0c-.15.751-.45,2.1-.9,3.6l-1.651,5.1Z" transform="translate(19.828 9.088)"/>
    <path id="Path_10831" data-name="Path 10831" class="cls-1" d="M109.212,47.756a7.994,7.994,0,0,1-1.952,5.705,5.775,5.775,0,0,1-4.354,1.8A4.086,4.086,0,0,1,99,53.311h0v7.357H95.85V45.654c0-1.5,0-3-.15-4.654h2.7l.15,2.252h0a5.173,5.173,0,0,1,4.654-2.552,4.842,4.842,0,0,1,4.054,1.952A6.361,6.361,0,0,1,109.212,47.756Zm-3.153,0a5.394,5.394,0,0,0-.9-3.3,3.031,3.031,0,0,0-2.7-1.351,3.587,3.587,0,0,0-2.1.751,3.337,3.337,0,0,0-1.2,1.952,2.641,2.641,0,0,0-.15.9v2.4a3.788,3.788,0,0,0,.9,2.552,2.987,2.987,0,0,0,2.4,1.051,3.031,3.031,0,0,0,2.7-1.351A5.423,5.423,0,0,0,106.059,47.756Z" transform="translate(26.177 10.825)"/>
    <path id="Path_10832" data-name="Path 10832" class="cls-1" d="M119.912,47.756a8,8,0,0,1-1.952,5.705,5.775,5.775,0,0,1-4.354,1.8,4.086,4.086,0,0,1-3.9-1.952h0v7.357H106.55V45.654c0-1.5,0-3-.15-4.654h2.7l.15,2.252h0a5.173,5.173,0,0,1,4.654-2.552,4.842,4.842,0,0,1,4.054,1.952A6.361,6.361,0,0,1,119.912,47.756Zm-3.153,0a5.394,5.394,0,0,0-.9-3.3,3.031,3.031,0,0,0-2.7-1.351,3.587,3.587,0,0,0-2.1.751,3.338,3.338,0,0,0-1.2,1.952,2.641,2.641,0,0,0-.15.9v2.4a3.788,3.788,0,0,0,.9,2.552,2.987,2.987,0,0,0,2.4,1.051,3.031,3.031,0,0,0,2.7-1.351A5.424,5.424,0,0,0,116.759,47.756Z" transform="translate(31.616 10.825)"/>
    <path id="Path_10833" data-name="Path 10833" class="cls-1" d="M131.361,51.213a5.544,5.544,0,0,1-1.652,4.054c-1.2,1.2-3,1.651-5.255,1.651a9.282,9.282,0,0,1-4.955-1.2l.751-2.552a9.172,9.172,0,0,0,4.5,1.2,4.458,4.458,0,0,0,2.7-.751,2.726,2.726,0,0,0,.9-2.1,2.854,2.854,0,0,0-.751-1.952,7.524,7.524,0,0,0-2.7-1.5c-3.453-1.2-5.1-3.153-5.1-5.555a4.842,4.842,0,0,1,1.8-3.9,6.838,6.838,0,0,1,4.8-1.5,9.362,9.362,0,0,1,4.354.9l-.751,2.552a7.313,7.313,0,0,0-3.753-.9,4.294,4.294,0,0,0-2.552.751,2.486,2.486,0,0,0-.751,1.8,2.643,2.643,0,0,0,.9,1.952,11.648,11.648,0,0,0,2.853,1.5,10.129,10.129,0,0,1,3.753,2.4A6.043,6.043,0,0,1,131.361,51.213Z" transform="translate(38.27 9.038)"/>
    <path id="Path_10834" data-name="Path 10834" class="cls-1" d="M137.058,44.355H133.6v6.756c0,1.652.6,2.552,1.8,2.552a3.332,3.332,0,0,0,1.351-.15l.15,2.4a5.5,5.5,0,0,1-2.4.3,3.531,3.531,0,0,1-2.853-1.051c-.751-.751-1.051-1.952-1.051-3.753V44.355h-2.1v-2.4h2.1V39.4l3-.9v3.453h3.453Z" transform="translate(42.834 9.739)"/>
    <path id="Path_10835" data-name="Path 10835" class="cls-1" d="M149.062,47.807a7.7,7.7,0,0,1-1.8,5.255,6.9,6.9,0,0,1-5.1,2.1,6.34,6.34,0,0,1-4.955-2.1,7.313,7.313,0,0,1-1.8-5.1,7.135,7.135,0,0,1,1.952-5.255,6.667,6.667,0,0,1,5.1-2.1,6.34,6.34,0,0,1,4.955,2.1A8,8,0,0,1,149.062,47.807Zm-3.3.15a5.71,5.71,0,0,0-.9-3.3,3.289,3.289,0,0,0-5.705,0,6.053,6.053,0,0,0-.9,3.3,5.709,5.709,0,0,0,.9,3.3,3.219,3.219,0,0,0,2.853,1.651,3.4,3.4,0,0,0,2.853-1.651A6.054,6.054,0,0,0,145.759,47.957Z" transform="translate(46.358 10.791)"/>
    <path id="Path_10836" data-name="Path 10836" class="cls-1" d="M153.757,43.653c-.3,0-.6-.15-1.051-.15a3.207,3.207,0,0,0-2.552,1.2,5.185,5.185,0,0,0-.751,2.7v7.357H146.25V45.154a39.365,39.365,0,0,0-.15-4.354h2.7l.15,2.7h.15a5.941,5.941,0,0,1,1.5-2.252,4.468,4.468,0,0,1,2.252-.751h.751v3.153Z" transform="translate(51.773 10.741)"/>
    <path id="Path_10837" data-name="Path 10837" class="cls-1" d="M164.561,47.206a3.333,3.333,0,0,1-.15,1.351H155.1a3.878,3.878,0,0,0,1.351,3.153,4.836,4.836,0,0,0,3,1.051,9.859,9.859,0,0,0,3.753-.6l.45,2.1a11.192,11.192,0,0,1-4.654.9,6.569,6.569,0,0,1-5.1-1.952,7.063,7.063,0,0,1-1.8-5.1,8.445,8.445,0,0,1,1.652-5.255,6,6,0,0,1,4.954-2.252,5,5,0,0,1,4.5,2.252A6.3,6.3,0,0,1,164.561,47.206Zm-2.853-.751a4.406,4.406,0,0,0-.6-2.4,2.705,2.705,0,0,0-2.4-1.351,2.917,2.917,0,0,0-2.4,1.2,5.733,5.733,0,0,0-.9,2.4h6.306Z" transform="translate(54.923 10.791)"/>
    <path id="Path_10838" data-name="Path 10838" class="cls-1" d="M92.207,30.8a4.883,4.883,0,0,1-1.5,3.9,6.213,6.213,0,0,1-4.054,1.2,9.941,9.941,0,0,1-2.252-.15V26.45a14.6,14.6,0,0,1,2.7-.15,5.6,5.6,0,0,1,3.753,1.051A4.862,4.862,0,0,1,92.207,30.8Zm-1.651,0A3.137,3.137,0,0,0,87.1,27.351a2.927,2.927,0,0,0-1.2.15v7.056h1.051a3.67,3.67,0,0,0,2.7-.9A4.064,4.064,0,0,0,90.556,30.8Z" transform="translate(20.425 3.648)"/>
    <path id="Path_10839" data-name="Path 10839" class="cls-1" d="M97.456,31.5a3.532,3.532,0,0,1-.9,2.552A3.093,3.093,0,0,1,94,35.107a2.8,2.8,0,0,1-2.4-1.051,3.532,3.532,0,0,1-.9-2.552,3.532,3.532,0,0,1,.9-2.552A3.093,3.093,0,0,1,94.153,27.9a2.8,2.8,0,0,1,2.4,1.051A3.532,3.532,0,0,1,97.456,31.5Zm-1.5,0a3.026,3.026,0,0,0-.45-1.651,1.313,1.313,0,0,0-1.351-.751,1.577,1.577,0,0,0-1.351.751,3.253,3.253,0,0,0,0,3.3,1.313,1.313,0,0,0,1.351.751A1.443,1.443,0,0,0,95.5,33,2.241,2.241,0,0,0,95.955,31.5Z" transform="translate(23.624 4.448)"/>
    <path id="Path_10840" data-name="Path 10840" class="cls-1" d="M106.259,28l-2.1,6.906h-1.351l-.9-3a12.506,12.506,0,0,1-.6-2.252h0a12.51,12.51,0,0,1-.6,2.252l-.9,3H98.452L96.2,28h1.5l.751,3.3.45,2.252h0c.15-.6.3-1.351.6-2.252l.9-3.3h1.2l.9,3.153a12.511,12.511,0,0,1,.6,2.252h0l.45-2.252.9-3.153Z" transform="translate(26.425 4.498)"/>
    <path id="Path_10841" data-name="Path 10841" class="cls-1" d="M110.055,35.007h-1.5V31.1q0-1.8-1.351-1.8a1.363,1.363,0,0,0-1.051.45,1.7,1.7,0,0,0-.45,1.2v4.054h-1.5V28.1h1.351v1.051h0a3.98,3.98,0,0,1,.751-.9,2.422,2.422,0,0,1,1.351-.45,2.258,2.258,0,0,1,1.652.6,2.584,2.584,0,0,1,.751,2.252Z" transform="translate(30.481 4.398)"/>
    <path id="Path_10842" data-name="Path 10842" class="cls-1" d="M111.4,35.959h-1.5V25.9h1.5Z" transform="translate(33.367 3.448)"/>
    <path id="Path_10843" data-name="Path 10843" class="cls-1" d="M119.156,31.5a3.532,3.532,0,0,1-.9,2.552,3.093,3.093,0,0,1-2.552,1.051,2.8,2.8,0,0,1-2.4-1.051,3.532,3.532,0,0,1-.9-2.552,3.532,3.532,0,0,1,.9-2.552,3.622,3.622,0,0,1,2.552-1.051,2.8,2.8,0,0,1,2.4,1.051A3.532,3.532,0,0,1,119.156,31.5Zm-1.5,0a3.026,3.026,0,0,0-.45-1.651,1.313,1.313,0,0,0-1.351-.751,1.577,1.577,0,0,0-1.351.751,3.253,3.253,0,0,0,0,3.3,1.313,1.313,0,0,0,1.351.751A1.443,1.443,0,0,0,117.2,33,2.241,2.241,0,0,0,117.655,31.5Z" transform="translate(34.649 4.448)"/>
    <path id="Path_10844" data-name="Path 10844" class="cls-1" d="M123.655,34.956H122.3l-.15-.751h0a2.421,2.421,0,0,1-1.952.9,1.741,1.741,0,0,1-1.5-.6,2.7,2.7,0,0,1-.6-1.351,2.037,2.037,0,0,1,1.051-1.952,5.611,5.611,0,0,1,3-.6v-.15A1.194,1.194,0,0,0,120.8,29.1a3.566,3.566,0,0,0-1.8.45l-.3-1.051a3.809,3.809,0,0,1,2.4-.6c1.8,0,2.7.9,2.7,2.853V33.3A7.366,7.366,0,0,0,123.655,34.956Zm-1.5-2.4V31.5c-1.652,0-2.552.45-2.552,1.351a1.026,1.026,0,0,0,1.051,1.051,2.134,2.134,0,0,0,.9-.3,1.5,1.5,0,0,0,.6-.751Z" transform="translate(37.542 4.448)"/>
    <path id="Path_10845" data-name="Path 10845" class="cls-1" d="M129.756,35.909H128.4V34.858h0a2.216,2.216,0,0,1-2.252,1.2,2.726,2.726,0,0,1-2.1-.9,3.47,3.47,0,0,1-.751-2.552,4.192,4.192,0,0,1,.9-2.7,2.964,2.964,0,0,1,2.1-.9,2.23,2.23,0,0,1,1.952.9h0V26h1.5v9.909Zm-1.5-2.853V31.4a3.14,3.14,0,0,0-.6-.9,1.267,1.267,0,0,0-1.051-.3,1.577,1.577,0,0,0-1.351.751,3.2,3.2,0,0,0-.45,1.8,2.7,2.7,0,0,0,.45,1.651,1.577,1.577,0,0,0,1.351.751,1.365,1.365,0,0,0,1.2-.6A3.357,3.357,0,0,0,128.254,33.056Z" transform="translate(40.186 3.498)"/>
    <path id="Path_10846" data-name="Path 10846" class="cls-1" d="M138.556,31.5a3.531,3.531,0,0,1-.9,2.552,3.093,3.093,0,0,1-2.552,1.051,2.8,2.8,0,0,1-2.4-1.051,3.532,3.532,0,0,1-.9-2.552,3.531,3.531,0,0,1,.9-2.552,3.093,3.093,0,0,1,2.552-1.051,2.8,2.8,0,0,1,2.4,1.051A3.531,3.531,0,0,1,138.556,31.5Zm-1.651,0a3.027,3.027,0,0,0-.45-1.651A1.313,1.313,0,0,0,135.1,29.1a1.577,1.577,0,0,0-1.351.751,3.253,3.253,0,0,0,0,3.3,1.313,1.313,0,0,0,1.351.751,1.443,1.443,0,0,0,1.351-.9A2.242,2.242,0,0,0,136.9,31.5Z" transform="translate(44.505 4.448)"/>
    <path id="Path_10847" data-name="Path 10847" class="cls-1" d="M143.755,35.007h-1.5V31.1q0-1.8-1.351-1.8a1.363,1.363,0,0,0-1.051.45,1.7,1.7,0,0,0-.45,1.2v4.054h-1.5V28.1h1.351v1.051h0a3.981,3.981,0,0,1,.751-.9,2.421,2.421,0,0,1,1.351-.45,2.258,2.258,0,0,1,1.652.6,2.583,2.583,0,0,1,.751,2.252Z" transform="translate(47.601 4.398)"/>
    <path id="Path_10848" data-name="Path 10848" class="cls-1" d="M149.954,29.753H148.3v3.3c0,.9.3,1.2.9,1.2h.751v1.2a2.927,2.927,0,0,1-1.2.15,1.464,1.464,0,0,1-1.351-.6,2.887,2.887,0,0,1-.45-1.8V29.753H145.9v-1.2h1.051v-1.2l1.5-.45v1.651H150.1v1.2Z" transform="translate(51.659 3.948)"/>
    <path id="Path_10849" data-name="Path 10849" class="cls-1" d="M155.955,35.959h-1.5v-3.9q0-1.8-1.351-1.8a1.445,1.445,0,0,0-1.5,1.051v4.654h-1.5V25.9h1.5v4.2h0a2.4,2.4,0,0,1,2.1-1.2,1.741,1.741,0,0,1,1.5.6,3.379,3.379,0,0,1,.751,2.252Z" transform="translate(53.92 3.448)"/>
    <path id="Path_10850" data-name="Path 10850" class="cls-1" d="M161.505,31.153V31.9H157a2,2,0,0,0,.6,1.5,2.536,2.536,0,0,0,1.5.45,5.6,5.6,0,0,0,1.8-.3l.3,1.051a5.014,5.014,0,0,1-2.252.45,3.617,3.617,0,0,1-2.552-6.005A2.8,2.8,0,0,1,158.8,28a2.37,2.37,0,0,1,2.252,1.051A3.976,3.976,0,0,1,161.505,31.153Zm-1.351-.45a2.828,2.828,0,0,0-.3-1.2,1.218,1.218,0,0,0-1.2-.6,1.365,1.365,0,0,0-1.2.6,1.7,1.7,0,0,0-.45,1.2Z" transform="translate(56.627 4.498)"/>
  </g>
</svg>
