<svg viewBox="0 0 32.658 24.855" height="24.855" width="32.658" xmlns:xlink="http://www.w3.org/1999/xlink" xmlns="http://www.w3.org/2000/svg">
  <defs>
    <style>
      .cls-1 {
        stroke: rgba(0,0,0,0);
        fill: url(#linear-gradient);
      }
    </style>
    <linearGradient gradientUnits="objectBoundingBox" y2="0.33" x2="-0.447" y1="0.34" x1="1.401" id="linear-gradient">
      <stop stop-color="#195dff" offset="0"></stop>
      <stop stop-color="#264a9f" offset="0.162"></stop>
      <stop stop-color="#35d3e1" offset="1"></stop>
    </linearGradient>
  </defs>
  <path transform="translate(-524.437 -1189.733)" d="M556.514,1207.217a.638.638,0,0,0-.034-.082l0,0,0,0a5.185,5.185,0,0,0-3.542-2.771l-.073-.352c-.057-.276-.115-.552-.168-.8l-1.739-8.145a4.548,4.548,0,0,0,1.009-.286,2.589,2.589,0,0,0,1.547-2.1,2.451,2.451,0,0,0-2.444-2.444h-6.241a1.335,1.335,0,0,0-1.331,1.332v.7a1.335,1.335,0,0,0,1.331,1.331h2.345c0,.215-.006.467-.01.5l-1.7,9.984a1.1,1.1,0,0,1-1.015.861h-3.823a.585.585,0,0,1-.44-.166.61.61,0,0,1-.193-.428.7.7,0,0,1,.005-.105l.422-4.216a1.908,1.908,0,0,0-.146-.948,2.032,2.032,0,0,0-.693-3.942h-7.706a2.031,2.031,0,0,0-1.86,2.849,3.557,3.557,0,0,0-2.229,1.422l-1.994,3.112a6.284,6.284,0,0,0-.853,2.917v2.587a2.037,2.037,0,0,0,2.031,2.032h.959a4.3,4.3,0,0,0,8.588,0l11.023,0a4.306,4.306,0,0,0,4.292,4.029c.06,0,.119,0,.179,0a4.307,4.307,0,0,0,3.8-5.972l.3-.1a.631.631,0,0,0,.406-.8Zm-21.263,2.841a3.041,3.041,0,0,1-6.056,0Zm11.928-18.561c0,.023,0,.045,0,.069v.769h-2.345a.071.071,0,0,1-.069-.069v-.7a.07.07,0,0,1,.069-.07Zm-16.056,5.655a.769.769,0,0,1,.751-.752h7.705a.769.769,0,0,1,.035,1.538h-7.739A.77.77,0,0,1,531.122,1197.151Zm17.315-3.361v-2.223a.07.07,0,0,1,.069-.07h2.563a1.183,1.183,0,0,1,1.182,1.181c0,.562-.794.948-.8.949a3.282,3.282,0,0,1-1.085.233h-1.862A.071.071,0,0,1,548.438,1193.79Zm3.906,11.751a3.929,3.929,0,0,1,2.613,1.52l-5.327,1.734h-1.669A3.924,3.924,0,0,1,552.343,1205.542Zm-13.184-5.64-.422,4.215a1.879,1.879,0,0,0,1.652,2.077,2.087,2.087,0,0,0,.239.012h3.82a2.35,2.35,0,0,0,2.256-1.906l1.57-9.2a1.338,1.338,0,0,0,.232.023h1.173l1.784,8.353c.051.242.107.511.163.778a5.2,5.2,0,0,0-4.938,4.542h-19.72a.772.772,0,0,1-.768-.771v-2.581a5.106,5.106,0,0,1,.656-2.244l1.987-3.1a2.231,2.231,0,0,1,1.629-.894h8.08a.615.615,0,0,1,.608.7Zm12.676,12.923a3.044,3.044,0,0,1-3.031-2.766h.928a.617.617,0,0,0,.2-.031l4.673-1.522a3.03,3.03,0,0,1,.278,1.269v.06a3.048,3.048,0,0,1-3.037,2.99Z" class="cls-1" data-name="Path 1923" id="Path_1923"></path>
</svg>
