<svg xmlns="http://www.w3.org/2000/svg" id="prefix__Group_1150" width="34" height="17.752" data-name="Group 1150" viewBox="0 0 34 17.752">
    <defs>
        <linearGradient id="prefix__linear-gradient" x1="1.401" x2="-.447" y1=".34" y2=".33" gradientUnits="objectBoundingBox">
            <stop offset="0" stop-color="#195dff"/>
            <stop offset=".162" stop-color="#264a9f"/>
            <stop offset="1" stop-color="#35d3e1"/>
        </linearGradient>
    </defs>
    <path id="prefix__Path_875" fill="url(#prefix__linear-gradient)" d="M37.566 156.024a3.941 3.941 0 0 0 7.621 0h12.888a3.941 3.941 0 0 0 7.621 0h1.662A1.644 1.644 0 0 0 69 154.382v-3.432a2.959 2.959 0 0 0-2.483-2.91l-5.71-1a1.549 1.549 0 0 1-.852-.457l-3.834-4.047a4.277 4.277 0 0 0-3.092-1.33H43.3a4.248 4.248 0 0 0-2.889 1.129l-3.48 3.211A6.022 6.022 0 0 0 35 149.959v4.423a1.644 1.644 0 0 0 1.642 1.642zm3.81 1.4a2.4 2.4 0 1 1 2.4-2.4 2.406 2.406 0 0 1-2.4 2.395zm20.51 0a2.4 2.4 0 1 1 2.4-2.4 2.406 2.406 0 0 1-2.4 2.395zM55 143.594l3.2 3.376h-6.031l-1.333-4.226h2.192a2.733 2.733 0 0 1 1.972.85zm-4.448 3.376H44.1l1.963-4.226h3.156zm-12.58-.293l3.48-3.211a2.714 2.714 0 0 1 1.846-.721h1.07l-1.963 4.225h-4.72c.094-.101.19-.2.291-.293zm-1.437 7.705v-4.423a4.458 4.458 0 0 1 .245-1.451h23.541c.073.018.146.034.22.047l5.714 1a1.426 1.426 0 0 1 1.206 1.394v3.432a.1.1 0 0 1-.1.1h-1.57a3.941 3.941 0 0 0-7.81 0h-12.7a3.941 3.941 0 0 0-7.81 0h-.83a.1.1 0 0 1-.103-.099z" data-name="Path 875" transform="translate(-35 -141.206)"/>
</svg>
