<svg xmlns="http://www.w3.org/2000/svg" width="28.5" height="25" viewBox="0 0 28.5 25">
    <defs>
        <linearGradient id="prefix__linear-gradient" x1="1.401" x2="-.447" y1=".34" y2=".33" gradientUnits="objectBoundingBox">
            <stop offset="0" stop-color="#195dff"/>
            <stop offset=".162" stop-color="#264a9f"/>
            <stop offset="1" stop-color="#35d3e1"/>
        </linearGradient>
        <style>
            .prefix__cls-1{fill:url(#prefix__linear-gradient)}
        </style>
    </defs>
    <g id="prefix__Group_4094" data-name="Group 4094" transform="translate(-1311.321 -179)">
        <path id="prefix__Path_2194" d="M-2606.2 3456.132a8.179 8.179 0 0 0-6.31 2.626 8.2 8.2 0 0 0-6.03-2.63h-.045a8.021 8.021 0 0 0-5.7 2.359 8.306 8.306 0 0 0-2.47 5.884 10.286 10.286 0 0 0 3.554 7.768l10.082 8.762a.938.938 0 0 0 .614.226.938.938 0 0 0 .614-.227l10.081-8.759a10.287 10.287 0 0 0 3.555-7.772 8.245 8.245 0 0 0-7.945-8.237zm6.069 8.237a8.437 8.437 0 0 1-2.912 6.367l-9.468 8.228-9.464-8.228a8.438 8.438 0 0 1-2.914-6.366 6.438 6.438 0 0 1 1.917-4.564 6.266 6.266 0 0 1 4.42-1.821h.017a6.355 6.355 0 0 1 5.271 2.818.947.947 0 0 0 .167.167.965.965 0 0 0 1.364-.2 6.343 6.343 0 0 1 5.289-2.791 6.354 6.354 0 0 1 6.312 6.39z" class="prefix__cls-1" data-name="Path 2194" transform="translate(3938.081 -3277.127)"/>
        <path id="prefix__Path_2195" d="M-2597.441 3474.549h-2.087v-2.09a1.667 1.667 0 0 0-1.66-1.658h-1.148a1.668 1.668 0 0 0-1.66 1.659v2.084h-2.089a1.665 1.665 0 0 0-1.658 1.659v1.148a1.665 1.665 0 0 0 1.659 1.664h2.084v2.084a1.666 1.666 0 0 0 1.659 1.659h1.149a1.667 1.667 0 0 0 1.659-1.66v-2.083h2.085a1.666 1.666 0 0 0 1.659-1.66v-1.149a1.669 1.669 0 0 0-1.652-1.657zm-5.7 2.765h-2.9v-1.059h2.9a.855.855 0 0 0 .851-.852v-2.9h1.059v2.9a.856.856 0 0 0 .853.852h2.893v1.055h-2.893a.854.854 0 0 0-.852.853v2.893h-1.058v-2.893a.852.852 0 0 0-.853-.85z" class="prefix__cls-1" data-name="Path 2195" transform="translate(3927.528 -3285.27)"/>
    </g>
</svg>
