<svg xmlns="http://www.w3.org/2000/svg" width="551.998" height="398.071" viewBox="0 0 551.998 398.071">
    <defs>
        <linearGradient id="prefix__linear-gradient" x1=".482" x2=".485" y1=".031" y2=".774" gradientUnits="objectBoundingBox">
            <stop offset="0" stop-color="#00bede" stop-opacity=".988"/>
            <stop offset="1" stop-color="#35e1ca" stop-opacity=".11"/>
        </linearGradient>
        <linearGradient id="prefix__linear-gradient-2" x1=".518" x2=".482" y1="1.921" y2="-1.337" gradientUnits="objectBoundingBox">
            <stop offset="0" stop-color="#0060ff"/>
            <stop offset="1" stop-color="#84b2ff"/>
        </linearGradient>
        <linearGradient id="prefix__linear-gradient-3" x1=".484" x2=".486" y1=".294" y2=".815" gradientUnits="objectBoundingBox">
            <stop offset="0" stop-color="#238bea"/>
            <stop offset=".732" stop-color="#1fd3d2" stop-opacity=".4"/>
            <stop offset="1" stop-color="#35d3e1" stop-opacity=".141"/>
        </linearGradient>
        <style>
            .prefix__cls-1,.prefix__cls-11,.prefix__cls-26{fill:#fff}.prefix__cls-14,.prefix__cls-21,.prefix__cls-22,.prefix__cls-26{stroke-miterlimit:10}.prefix__cls-9{fill:#e2edff}.prefix__cls-14,.prefix__cls-22,.prefix__cls-5{fill:none}.prefix__cls-28,.prefix__cls-6{fill:#002226}.prefix__cls-11,.prefix__cls-18,.prefix__cls-22,.prefix__cls-9{stroke:#002226}.prefix__cls-21{stroke:#000}.prefix__cls-14{stroke:#195dff}.prefix__cls-14,.prefix__cls-21,.prefix__cls-22{stroke-linecap:round}.prefix__cls-18{fill:#f8feff;isolation:isolate}.prefix__cls-21{fill:#eaf9fb}.prefix__cls-25{opacity:.7}.prefix__cls-26{stroke:#263238}.prefix__cls-27,.prefix__cls-28{stroke:none}
        </style>
    </defs>
    <g id="prefix__Group_3965" data-name="Group 3965" transform="translate(-1057.643 -315.501)">
        <g id="prefix__Group_3654" data-name="Group 3654" transform="translate(0 -17)">
            <g id="prefix__Group_3652" data-name="Group 3652" transform="translate(-84.335 -30)">
                <g id="prefix__Group_1412" data-name="Group 1412" transform="translate(1517.724 549.682)">
                    <ellipse id="prefix__Ellipse_13" cx="8.923" cy="9.494" class="prefix__cls-1" data-name="Ellipse 13" rx="8.923" ry="9.494" transform="rotate(-3.96 17.776 .614)"/>
                    <path id="prefix__Union_4" fill="#fff" stroke="rgba(0,0,0,0)" stroke-miterlimit="10" d="M60.129 92.659l-.054.091s-.127-.087-.369-.26A9.634 9.634 0 0 1 56 89.664C44.353 80.324 11.018 49.9 0 0c0 0 14.012 38.793 66.168 73.689a9.493 9.493 0 0 1 3.544 2.327l.217.14-.033.056a10.387 10.387 0 0 1 2.673 6.315c.382 5.532-3.523 10.308-8.723 10.666q-.312.022-.621.021a8.921 8.921 0 0 1-3.096-.555z" data-name="Union 4" transform="rotate(-169 43.222 57.804)"/>
                </g>
                <path id="prefix__Path_552" fill="url(#prefix__linear-gradient)" d="M1097.174 281.281V237.7c0-87.649 75.1-158.7 167.748-158.7s167.748 71.054 167.748 158.7v43.579" data-name="Path 552" opacity="0.2" transform="translate(174.099 427.397)"/>
                <path id="prefix__Path_527" fill="#e2edff" d="M1483.043 353.5h-135.229v-42.156h119.205l11.123 9.039a13.272 13.272 0 0 1 4.9 10.3z" data-name="Path 527" transform="translate(72.002 334.08)"/>
                <g id="prefix__Path_529" class="prefix__cls-5" data-name="Path 529">
                    <path d="M1334.793 357.123c0-15.385 6.975-27.858 15.58-27.858h-16.528c-8.6 0-15.58 12.472-15.58 27.858s6.976 27.857 15.58 27.857h16.528c-8.605 0-15.58-12.472-15.58-27.857z" class="prefix__cls-27" transform="translate(84.246 326.654)"/>
                    <path d="M1344.236 383.98c-2.147-1.468-4.102-3.72-5.753-6.671-3.024-5.408-4.69-12.577-4.69-20.186 0-7.61 1.666-14.779 4.69-20.187 1.65-2.951 3.606-5.203 5.753-6.671h-10.391c-1.88 0-3.718.668-5.461 1.987-1.745 1.319-3.32 3.223-4.683 5.66-1.386 2.478-2.475 5.37-3.239 8.597-.794 3.36-1.197 6.93-1.197 10.614 0 3.683.403 7.254 1.197 10.613.764 3.227 1.853 6.12 3.239 8.597 1.363 2.437 2.938 4.341 4.683 5.66 1.743 1.319 3.58 1.987 5.46 1.987h10.392m6.137 1h-16.528c-8.605 0-15.58-12.472-15.58-27.857 0-15.386 6.975-27.858 15.58-27.858h16.528c-8.605 0-15.58 12.472-15.58 27.858 0 15.385 6.975 27.857 15.58 27.857z" class="prefix__cls-28" transform="translate(84.246 326.654)"/>
                </g>
                <ellipse id="prefix__Ellipse_8" cx="15.58" cy="27.858" class="prefix__cls-6" data-name="Ellipse 8" rx="15.58" ry="27.858" transform="translate(1419.039 655.919)"/>
                <ellipse id="prefix__Ellipse_9" cx="11.046" cy="21.723" class="prefix__cls-1" data-name="Ellipse 9" rx="11.046" ry="21.723" transform="translate(1424.826 662.054)"/>
                <g id="prefix__Path_530" class="prefix__cls-5" data-name="Path 530">
                    <path d="M1181.452 357.123c0-15.385 6.976-27.858 15.58-27.858H1180.5c-8.605 0-15.581 12.472-15.581 27.858s6.975 27.857 15.581 27.857h16.527c-8.599 0-15.575-12.472-15.575-27.857z" class="prefix__cls-27" transform="translate(147.784 326.654)"/>
                    <path d="M1190.895 383.98c-2.146-1.468-4.102-3.72-5.752-6.67-3.025-5.41-4.691-12.578-4.691-20.187 0-7.61 1.666-14.778 4.69-20.187 1.651-2.951 3.607-5.203 5.754-6.671h-10.391c-1.881 0-3.719.668-5.462 1.987-1.744 1.319-3.32 3.223-4.683 5.66-1.385 2.478-2.475 5.37-3.238 8.597-.795 3.36-1.198 6.93-1.198 10.614 0 3.683.403 7.254 1.198 10.613.763 3.227 1.853 6.12 3.238 8.597 1.363 2.437 2.939 4.341 4.683 5.66 1.743 1.319 3.58 1.987 5.462 1.987h10.39m6.137 1h-16.527c-8.605 0-15.58-12.472-15.58-27.857 0-15.386 6.975-27.858 15.58-27.858h16.527c-8.604 0-15.58 12.472-15.58 27.858 0 15.385 6.976 27.857 15.58 27.857z" class="prefix__cls-28" transform="translate(147.784 326.654)"/>
                </g>
                <g id="prefix__Ellipse_10" fill="none" stroke="#002226" data-name="Ellipse 10" transform="translate(1329.236 655.919)">
                    <ellipse cx="15.58" cy="27.858" class="prefix__cls-27" rx="15.58" ry="27.858"/>
                    <ellipse cx="15.58" cy="27.858" rx="15.08" ry="27.358"/>
                </g>
                <g id="prefix__Path_531" class="prefix__cls-5" data-name="Path 531">
                    <path d="M1517.1 357.123c0-15.385 6.975-27.858 15.58-27.858h-16.528c-8.6 0-15.58 12.472-15.58 27.858s6.975 27.857 15.58 27.857h16.528c-8.606 0-15.58-12.472-15.58-27.857z" class="prefix__cls-27" transform="translate(8.706 326.654)"/>
                    <path d="M1526.542 383.98c-2.146-1.468-4.102-3.72-5.753-6.67-3.024-5.41-4.69-12.578-4.69-20.187 0-7.61 1.666-14.778 4.69-20.187 1.651-2.951 3.607-5.203 5.753-6.671h-10.39c-1.881 0-3.719.668-5.462 1.987-1.744 1.319-3.32 3.223-4.683 5.66-1.385 2.478-2.475 5.37-3.238 8.597-.795 3.36-1.198 6.93-1.198 10.614 0 3.683.403 7.254 1.198 10.613.763 3.227 1.853 6.12 3.238 8.597 1.363 2.437 2.939 4.341 4.683 5.66 1.743 1.319 3.58 1.987 5.461 1.987h10.391m6.137 1h-16.528c-8.604 0-15.58-12.472-15.58-27.857 0-15.386 6.976-27.858 15.58-27.858h16.528c-8.605 0-15.58 12.472-15.58 27.858 0 15.385 6.975 27.857 15.58 27.857z" class="prefix__cls-28" transform="translate(8.706 326.654)"/>
                </g>
                <ellipse id="prefix__Ellipse_11" cx="15.58" cy="27.858" class="prefix__cls-6" data-name="Ellipse 11" rx="15.58" ry="27.858" transform="translate(1525.805 655.919)"/>
                <ellipse id="prefix__Ellipse_12" cx="11.046" cy="21.723" class="prefix__cls-1" data-name="Ellipse 12" rx="11.046" ry="21.723" transform="translate(1531.592 662.054)"/>
                <path id="prefix__Path_532" fill="url(#prefix__linear-gradient-2)" d="M1249.268 370.55h-19.985l-1.116-1.116a6.143 6.143 0 0 0-4.343-1.8h-49.954a6.142 6.142 0 0 0-4.343 1.8l-.679.679h-1.823a10.73 10.73 0 0 1-10.73-10.73v-16.475h113.371l-9.033 19.61a12.057 12.057 0 0 1-11.365 8.032z" data-name="Path 532" transform="translate(151.359 321.001)"/>
                <path id="prefix__Path_533" d="M1249.268 370.55h-19.985l-1.116-1.116a6.143 6.143 0 0 0-4.343-1.8h-49.954a6.142 6.142 0 0 0-4.343 1.8l-.679.679h-1.823a10.73 10.73 0 0 1-10.73-10.73v-16.475h113.371l-9.033 19.61a12.057 12.057 0 0 1-11.365 8.032z" class="prefix__cls-9" data-name="Path 533" transform="translate(151.359 321.001)"/>
                <path id="prefix__Path_534" fill="#1a2e35" d="M1516.276 216.064a.384.384 0 0 1-.2-.053.388.388 0 0 1-.14-.532l5.442-9.329a.389.389 0 1 1 .671.392l-5.442 9.329a.388.388 0 0 1-.331.193z" data-name="Path 534" transform="translate(2.36 377.748)"/>
                <path id="prefix__Path_535" d="M1484.952 264.378v-10.6c0-5.572-8.1-31.875-19.243-36.8s-38.094-7.126-55.068-6.22-39.617 36.409-39.617 36.409l2.385 29.328c3.449 0 14.518.172 16.13 30.382a8.307 8.307 0 0 0 8.283 7.883h59.438a8.289 8.289 0 0 0 8.211-7.125c1.524-10.766 5.612-29.937 15.4-29.937 6.868 0 11.791 5.878 11.791 12.616a45.68 45.68 0 0 0-5.245-21.251z" class="prefix__cls-9" data-name="Path 535" transform="translate(62.385 377.041)"/>
                <path id="prefix__Path_536" d="M1285.811 210.9c-30.924 0-65.951 36.409-65.951 36.409h88.528s22.644-35.5 39.617-36.409z" class="prefix__cls-11" data-name="Path 536" transform="translate(125.021 376.9)"/>
                <path id="prefix__Path_538" d="M1282.049 273.068l-32.7 25.806-88-.281s-5.054 7.342-5.054 15.375h113.371c1.857-4.923 8.368-10.365 14.846-10.365 0-9.156-2.463-30.535-2.463-30.535z" class="prefix__cls-9" data-name="Path 538" transform="translate(151.359 349.94)"/>
                <path id="prefix__Path_540" d="M1164.924 298.594s15.458-18.01 32.173-25.526h88.528l-32.7 25.806z" class="prefix__cls-9" data-name="Path 540" transform="translate(147.784 349.94)"/>
                <path id="prefix__Rectangle_2164" d="M0 0H58.048V1.684H0z" data-name="Rectangle 2164" transform="translate(1323.113 648.534)"/>
                <path id="prefix__Path_541" d="M1278.688 303.991l3.121-3.121a5.159 5.159 0 0 1 2.552-1.394l23.49-5.116a5.157 5.157 0 0 1 2.5.074l1.256.353a5.162 5.162 0 0 1 2.487 8.368l-5.05 5.77a5.159 5.159 0 0 1-3.408 1.741l-22.817 2.114a5.161 5.161 0 0 1-4.119-1.482 5.161 5.161 0 0 1-.012-7.307z" class="prefix__cls-11" data-name="Path 541" transform="translate(101.272 341.166)"/>
                <path id="prefix__Path_542" d="M1175.8 308.719l-2.58-4.81a4.239 4.239 0 0 0-1.557-1.633 4.241 4.241 0 0 0-4.15-.118l-1.95 1.023a4.24 4.24 0 0 0-2.047 2.393l-1.195 3.521a4.241 4.241 0 0 0 3.294 5.541l5.369.928a4.24 4.24 0 0 0 4.455-2.168l.357-.662a4.24 4.24 0 0 0 .004-4.015z" class="prefix__cls-11" data-name="Path 542" transform="translate(148.956 338.087)"/>
                <path id="prefix__Path_543" fill="#fff" stroke="#000" d="M1398.829 252.194h81.845a4.448 4.448 0 0 0 4.258-5.729c-1.862-6.225-5.45-15.944-10.813-20.905a4.483 4.483 0 0 0-2.124-1.087c-9.647-2.046-25.158-3.407-36.665-4.2a36.176 36.176 0 0 0-28.3 10.755 99.292 99.292 0 0 0-11.807 14.407 4.345 4.345 0 0 0 3.606 6.759z" data-name="Path 543" transform="translate(52.663 371.85)"/>
                <path id="prefix__Path_544" d="M1303.279 355.2c0 2.552-2.61 4.621-5.83 4.621s-5.831-2.069-5.831-4.621 2.61-4.621 5.831-4.621 5.83 2.068 5.83 4.621z" data-name="Path 544" transform="translate(95.287 317.823)"/>
                <path id="prefix__Path_545" d="M1227.7 310.629c1.914 0 2.847 1.957 2.086 4.371s-2.93 4.371-4.843 4.371-2.847-1.957-2.086-4.371 2.934-4.371 4.843-4.371z" class="prefix__cls-6" data-name="Path 545" transform="translate(123.887 334.376)"/>
                <path id="prefix__Path_546" d="M1162.005 355.2c0 2.552-.735 4.621-1.641 4.621s-1.641-2.069-1.641-4.621.734-4.621 1.641-4.621 1.641 2.068 1.641 4.621z" data-name="Path 546" transform="translate(150.354 317.823)"/>
                <path id="prefix__Path_547" d="M1397.594 268.141v-2.62a5.059 5.059 0 0 1 6.091-4.952l9.966 2.078a5.059 5.059 0 0 1 4.026 4.952v.542a5.059 5.059 0 0 1-5.058 5.059h-9.967a5.059 5.059 0 0 1-5.058-5.059z" class="prefix__cls-6" data-name="Path 547" transform="translate(51.375 355.164)"/>
                <path id="prefix__Path_548" d="M1484.553 221.95s-1.329-.133-3.649-.338c10.251 21 7.638 31.171 7.638 31.171h7.817c.08-12.783-11.806-30.833-11.806-30.833z" class="prefix__cls-6" data-name="Path 548" transform="translate(16.855 371.261)"/>
                <path id="prefix__Path_549" fill="#edf0f5" d="M1304.256 243.9a6.67 6.67 0 0 1-6.637 6.029h-40.288c-2.94 0-4-3.276-1.878-5.723a114.249 114.249 0 0 1 12.486-12.188c7.585-6.387 17.008-9.709 25.816-9.1 1.073.076 2.188.157 3.333.244a6.676 6.676 0 0 1 6.012 5.263 50.75 50.75 0 0 1 1.156 15.475z" data-name="Path 549" opacity="0.51" transform="translate(110.735 370.75)"/>
                <path id="prefix__Path_550" d="M1495.258 336.967a.389.389 0 0 1-.389-.389c0-7.867 4.01-40.307 5.062-45.172 1.02-4.719 1.023-9.983.007-13.413a.389.389 0 0 1 .746-.22c1.05 3.544 1.053 8.96.006 13.8s-5.044 37.171-5.044 45.008a.389.389 0 0 1-.388.386z" class="prefix__cls-6" data-name="Path 550" transform="translate(11.068 348.106)"/>
                <path id="prefix__Path_551" d="M1486.211 299.093h-9.48a1.175 1.175 0 0 1-1.183-1.436l.194-1.1a1.8 1.8 0 0 1 1.69-1.436h9.48a1.174 1.174 0 0 1 1.182 1.436l-.194 1.1a1.8 1.8 0 0 1-1.689 1.436z" data-name="Path 551" transform="translate(19.083 340.803)"/>
                <path id="prefix__Path_553" d="M1097.174 279.85v-43.27c0-87.029 75.1-157.58 167.748-157.58s167.748 70.551 167.748 157.58v43.27" class="prefix__cls-14" data-name="Path 553" transform="translate(175.857 428.596)"/>
                <path id="prefix__Line_61" d="M0 0L276.534 0" class="prefix__cls-14" data-name="Line 61" transform="translate(1404.144 711.809)"/>
                <path id="prefix__Line_194" d="M0 0L87.64 0" class="prefix__cls-14" data-name="Line 194" transform="translate(1142.478 711.809)"/>
                <path id="prefix__Line_195" d="M0 0L48.274 0" class="prefix__cls-14" data-name="Line 195" transform="translate(1314.151 711.809)"/>
                <path id="prefix__Path_562" fill="#0e215c" d="M1105.133 502.249h-10.742a7.672 7.672 0 0 1 5.082-1.8.509.509 0 0 0 .5-.52.5.5 0 0 0-.52-.5 8.188 8.188 0 0 0-6.459 2.817h-23.666a.509.509 0 0 0 0 1.018h35.807a.509.509 0 1 0 0-1.018z" data-name="Path 562" transform="translate(187.607 256.144)"/>
                <path id="prefix__Path_990" fill="url(#prefix__linear-gradient-3)" d="M1097.174 281.281V237.7c0-87.649 75.1-158.7 167.748-158.7s167.748 71.054 167.748 158.7v43.579" data-name="Path 990" opacity="0.2" transform="translate(175.857 429.155)"/>
                <path id="prefix__Path_554" fill="#35d3e1" stroke="#002226" d="M1133.114 131.876h-10.767a.355.355 0 0 1-.33-.484l9.112-23.147a.356.356 0 0 1 .33-.224h10.767a.354.354 0 0 1 .33.484l-9.113 23.147a.353.353 0 0 1-.329.224z" data-name="Path 554" transform="translate(165.573 418.329)"/>
                <path id="prefix__Path_555" d="M1133.181 125.514h-7.381a.243.243 0 0 1-.226-.332l6.248-15.871a.243.243 0 0 1 .226-.154h7.382a.243.243 0 0 1 .226.332l-6.248 15.871a.244.244 0 0 1-.227.154z" class="prefix__cls-1" data-name="Path 555" transform="translate(165.295 419.057)"/>
                <path id="prefix__Path_556" d="M1076.4 424.406s-2.221-25.224-4.6-48.386 3.966-25.7 5.711-28.556c1.155-1.89.365-8.224-.3-12.294l-11.278-.464 1.863 10.951a3.77 3.77 0 0 1-.282 2.2c-6.933 15.217-2.453 27.251 1.116 43.079a138.743 138.743 0 0 1 3.193 29.253 5.387 5.387 0 0 1-.762 2.714 29.778 29.778 0 0 0-3.7 10.5 1.206 1.206 0 0 0 1.223 1.384l5.131-.128c-.792-2.287 2.685-10.253 2.685-10.253z" class="prefix__cls-18" data-name="Path 556" transform="translate(189.655 324.4)"/>
                <path id="prefix__Path_557" d="M1101.224 431.556c-2.128-.919-7.876-3.921-10.88-5.505a3.032 3.032 0 0 1-1.589-3.107c1.58-11.121 8.944-62.721 10.591-70.074a48.51 48.51 0 0 0 .388-16.657l-17.292-.713c.667 4.07 1.458 10.4.3 12.294-1.745 2.856-8.091 5.394-5.711 28.556s4.6 48.386 4.6 48.386-3.477 7.966-2.69 10.249l29.376-.731c.036-2.222-4.156-1.428-7.093-2.698z" class="prefix__cls-18" data-name="Path 557" transform="translate(184.421 324.071)"/>
                <path id="prefix__Path_558" fill="#dcf5f8" stroke="#000" d="M1051.446 176.361s5.769 32.589 4.054 35.863-17.775 28.729-18.867 56c0 0 6.081 9.18 31.185 7s25.012-3.742 25.012-3.742l-2.063-15.593 4.962 14.345 2.962-1.543s-8.575-22.314-9.2-31.357-6.081-22.128-6.081-22.128 5.457-25.429 4.21-35.408-36.174-3.437-36.174-3.437z" data-name="Path 558" transform="translate(200.943 390.886)"/>
                <path id="prefix__Path_559" fill="#edf0f5" stroke="#002226" stroke-width="0.7px" d="M1111.71 139.534s7.722-8.918 10.165-9.123-3.912 7.935-3.912 7.935 4.669 2.66 4.567 3.993-2.516 6.422-2.516 6.422z" data-name="Path 559" transform="translate(169.834 409.053)" style="isolation:isolate"/>
                <path id="prefix__Path_560" d="M1104.757 132.872s8.092-2.882 12.344 4.164 5.059 12.6 6.583 17.879c9.267 37.652-1.1-15.812 0-19.769s3.977-6.013 4.114-8.482-.96-9.729.412-9.459 2.606 6.854 2.606 6.854l2.332-6.861s5.1 6.861 2 10.7-6.118 7.955-5.569 10.972 11.355 43.889 6.568 49.787-15.895 5.075-24.261-24.413-7.129-31.372-7.129-31.372z" class="prefix__cls-18" data-name="Path 560" transform="translate(172.741 414.526)"/>
                <path id="prefix__Path_561" d="M1045.815 93.647s0 17.232-6.393 24.188-8.46 17.484-2.632 24.441c0 0-4.7 15.48 7.9 20.9a21.631 21.631 0 0 0 21.809-2.288s9.588-1.881 9.776-9.589c0 0 11.281-.376 8.837-16.92s-5.8-13.985-5.076-23.658c0 0 11.371-8.628 9.07-22s-18.334-21.9-26.661-19.035-17.57 8.422-16.63 23.961z" class="prefix__cls-6" data-name="Path 561" transform="translate(202.3 434.443)"/>
                <path id="prefix__Line_62" d="M0 0L249.715 0" class="prefix__cls-14" data-name="Line 62" transform="translate(1209.557 760.072)"/>
                <g id="prefix__Group_1411" data-name="Group 1411" transform="translate(1173.171 659.106)">
                    <path id="prefix__Path_659" d="M473.5 729.615a8.652 8.652 0 0 0 4.454-3.109 8.008 8.008 0 0 0-.207-9.074c-1.028-1.26-2.412-1.975-3.3-3.42a6.173 6.173 0 0 1-.357-6.085s3.556-4.385-2.371-7.585c0 0-3.082-1.422-1.3-5.333 0 0 1.541-5.333-4.268-5.57 0 0-6.045-.593-4.742 6.281.236 1.247.872 1.912.11 3.256-1.444 2.547-5.354 2.482-5.145 6.159.116 2.045 1.744 3.692 1.7 5.761-.061 2.888-2.682 4-4.288 5.954a8.808 8.808 0 0 0-1.786 3.26c-1.149 4.279 2.535 7.545 5.857 9.5" class="prefix__cls-21" data-name="Path 659" transform="translate(-451.781 -689.426)"/>
                    <path id="prefix__Line_55" d="M0 20.503L0 0" class="prefix__cls-22" data-name="Line 55" transform="translate(13.185 31.419)"/>
                    <path id="prefix__Line_56" d="M0 14.34L0 0" class="prefix__cls-22" data-name="Line 56" transform="translate(13.185 15.657)"/>
                    <path id="prefix__Line_57" d="M0 3.555L3.675 0" class="prefix__cls-22" data-name="Line 57" transform="translate(13.185 21.464)"/>
                    <path id="prefix__Line_58" d="M2.371 2.37L0 0" class="prefix__cls-22" data-name="Line 58" transform="translate(10.814 15.42)"/>
                    <path id="prefix__Line_59" d="M0 4.978L0 0" class="prefix__cls-22" data-name="Line 59" transform="translate(13.54 7.835)"/>
                </g>
                <g id="prefix__Group_1493" data-name="Group 1493" transform="translate(1667.833 672.475)">
                    <path id="prefix__Path_659-2" d="M467.908 719.266a6.424 6.424 0 0 0 3.307-2.309 5.946 5.946 0 0 0-.154-6.737c-.763-.936-1.791-1.466-2.448-2.54a4.584 4.584 0 0 1-.265-4.518s2.641-3.256-1.76-5.632c0 0-2.288-1.056-.968-3.96 0 0 1.144-3.96-3.169-4.136 0 0-4.489-.44-3.521 4.663.175.926.648 1.42.082 2.418-1.072 1.891-3.976 1.843-3.82 4.573.086 1.518 1.295 2.741 1.262 4.278-.046 2.144-1.991 2.972-3.184 4.421a6.54 6.54 0 0 0-1.33 2.422c-.853 3.177 1.883 5.6 4.349 7.057" class="prefix__cls-21" data-name="Path 659" transform="translate(-451.781 -689.426)"/>
                    <path id="prefix__Line_55-2" d="M0 15.224L0 0" class="prefix__cls-22" data-name="Line 55" transform="translate(9.79 23.329)"/>
                    <path id="prefix__Line_56-2" d="M0 10.648L0 0" class="prefix__cls-22" data-name="Line 56" transform="translate(9.79 11.625)"/>
                    <path id="prefix__Line_57-2" d="M0 2.64L2.729 0" class="prefix__cls-22" data-name="Line 57" transform="translate(9.79 15.937)"/>
                    <path id="prefix__Line_58-2" d="M1.76 1.76L0 0" class="prefix__cls-22" data-name="Line 58" transform="translate(8.029 11.449)"/>
                    <path id="prefix__Line_59-2" d="M0 3.696L0 0" class="prefix__cls-22" data-name="Line 59" transform="translate(10.054 5.817)"/>
                </g>
                <ellipse id="prefix__Ellipse_13-2" cx="8.923" cy="9.494" fill="#fff" data-name="Ellipse 13" opacity="0.6" rx="8.923" ry="9.494" transform="rotate(-3.96 8733.268 -21694.458)"/>
                <path id="prefix__Union_4-2" fill="#fff" stroke="rgba(0,0,0,0)" stroke-miterlimit="10" d="M60.129 92.659l-.054.091s-.127-.087-.369-.26A9.634 9.634 0 0 1 56 89.664C44.353 80.324 11.018 49.9 0 0c0 0 14.012 38.793 66.168 73.689a9.493 9.493 0 0 1 3.544 2.327l.217.14-.033.056a10.387 10.387 0 0 1 2.673 6.315c.382 5.532-3.523 10.308-8.723 10.666q-.312.022-.621.021a8.921 8.921 0 0 1-3.096-.555z" data-name="Union 4" opacity="0.6" transform="rotate(-169 828.548 259.575)"/>
                <g id="prefix__Group_2391" class="prefix__cls-25" data-name="Group 2391" transform="translate(2894.018 -3730.927)">
                    <path id="prefix__Path_1413" d="M-1259.054 4199.41c2.579-1.407 3.752-.234 4.69-1.407s-2.579-4.221 4.456-7.27c0 0 .469-6.566 10.083-6.8s7.035 6.566 9.614 8.208 3.284-.937 5.863.7 1.407 4.924 3.517 5.394 4.924-2.11 7.5-.47 2.58 3.049 3.752 3.049 3.518-.937 4.924 0 3.049 2.11 3.049 2.11h-59.328s-.7-2.107 1.88-3.514z" class="prefix__cls-26" data-name="Path 1413"/>
                </g>
            </g>
            <g id="prefix__Group_2391-2" class="prefix__cls-25" data-name="Group 2391" transform="translate(2572.683 -3850.927)">
                <path id="prefix__Path_1413-2" d="M-1257.192 4214.095c5.025-2.741 7.31-.457 9.138-2.741s-5.025-8.225 8.681-14.164c0 0 .914-12.794 19.646-13.251s13.707 12.793 18.73 15.991 6.4-1.826 11.423 1.371 2.741 9.594 6.853 10.509 9.594-4.111 14.621-.915 5.027 5.94 7.311 5.94 6.854-1.825 9.594 0 5.94 4.111 5.94 4.111h-115.593s-1.37-4.111 3.656-6.851z" class="prefix__cls-26" data-name="Path 1413"/>
            </g>
        </g>
    </g>
</svg>
