<svg xmlns="http://www.w3.org/2000/svg" width="28.533" height="62.486" viewBox="0 0 28.533 62.486">
    <defs>
        <style>
            .prefix__cls-2{fill:#071e54}.prefix__cls-3{fill:none;stroke:#071e54;stroke-width:.5px;opacity:.38}
        </style>
    </defs>
    <g id="prefix__Group_3454" data-name="Group 3454" transform="translate(-946 -974.5)">
        <g id="prefix__noun_Car_1930993" transform="translate(933 989.933)" style="opacity:.5">
            <g id="prefix__Group_3346" data-name="Group 3346" transform="translate(13 2.01)">
                <path id="prefix__Path_1943" d="M36.224 32.987H22.855l-.728 7.254a2.247 2.247 0 0 0 1 2.1l.189.125a11.237 11.237 0 0 0 12.459 0l.19-.126a2.246 2.246 0 0 0 1-2.1zm-1.1 8.1l-.19.126a9.74 9.74 0 0 1-10.8 0l-.189-.125a.751.751 0 0 1-.331-.7l.592-5.9h10.663l.592 5.9a.751.751 0 0 1-.334.703z" class="prefix__cls-2" data-name="Path 1943" transform="translate(-15.271 -9.727)"/>
                <path id="prefix__Path_1944" d="M22.917 18.189H36.2l.681-4.087a2.257 2.257 0 0 0-1.126-2.34l-1.455-.809a9.707 9.707 0 0 0-9.481 0l-1.457.809a2.257 2.257 0 0 0-1.126 2.34zm1.176-5.115l1.456-.809a8.215 8.215 0 0 1 8.022 0l1.456.809a.755.755 0 0 1 .375.781l-.472 2.832H24.189l-.472-2.833a.751.751 0 0 1 .376-.78z" class="prefix__cls-2" data-name="Path 1944" transform="translate(-15.294 -3.93)"/>
                <path id="prefix__Path_1945" d="M41.2 27.662a.751.751 0 0 0-.7-.075l-3.112 1.245-.363-4.3L38.1 11.689a8.185 8.185 0 0 0-4.533-8.049l-.593-.3a12.873 12.873 0 0 0-11.413 0l-.592.3a8.185 8.185 0 0 0-4.54 8.049l1.078 12.84-.36 4.306-3.115-1.245a.751.751 0 0 0-1.032.693v1.987a2.243 2.243 0 0 0 1.416 2.092l2.353.941-.315 3.738a8.215 8.215 0 0 0 4.978 8.248l2.58 1.1a8.319 8.319 0 0 0 6.506 0l2.58-1.1a8.215 8.215 0 0 0 4.981-8.248l-.313-3.741 2.353-.941a2.243 2.243 0 0 0 1.415-2.092v-1.984a.751.751 0 0 0-.33-.622zM16.754 31.68l-1.78-.713a.746.746 0 0 1-.472-.7v-.878l2.253.9zm15.755 12.228l-2.58 1.1a6.807 6.807 0 0 1-5.325 0l-2.58-1.1a6.716 6.716 0 0 1-4.068-6.742l1.051-12.637-1.082-12.968a6.69 6.69 0 0 1 3.71-6.576l.593-.3a11.361 11.361 0 0 1 10.076 0l.592.3a6.69 6.69 0 0 1 3.711 6.576l-1.081 12.968 1.057 12.64a6.716 6.716 0 0 1-4.074 6.739zm7.523-13.638a.746.746 0 0 1-.472.7l-1.78.713v-1.39l2.253-.9z" class="prefix__cls-2" data-name="Path 1945" transform="translate(-13 -2.01)"/>
            </g>
        </g>
        <path id="prefix__Line_242" d="M0 0L0 10" class="prefix__cls-3" data-name="Line 242" transform="translate(958.5 982.5)"/>
        <path id="prefix__Line_243" d="M0 0L0 13" class="prefix__cls-3" data-name="Line 243" transform="translate(953.5 974.5)"/>
        <path id="prefix__Line_244" d="M0 0L0 9" class="prefix__cls-3" data-name="Line 244" transform="translate(965.5 977.5)"/>
    </g>
</svg>
