<svg xmlns="http://www.w3.org/2000/svg" width="50.844" height="36.914" viewBox="0 0 50.844 36.914">
    <defs>
        <style>
            .cls-1{fill:#0d3594;stroke:#0d3594;stroke-width:.5px}
        </style>
    </defs>
    <g id="noun_Announcement_3283899" transform="translate(.262 -3.061)">
        <g id="Group_12474" transform="translate(.001 3.32)">
            <path id="Path_10791" d="M24.933 3.473a2.984 2.984 0 0 0-1.632 1.7A34.815 34.815 0 0 1 3.763 21.137c-.012 0-.021.017-.033.019s-.047 0-.072.013c-.06.023-5.777 2.477-2.8 10.414.8 2.013 3.052 5.291 6.448 5.291a5.779 5.779 0 0 0 1.016-.1l.2.518a3.751 3.751 0 0 0 3.487 2.439 3.607 3.607 0 0 0 .683-.065l5.724-1.086a3.745 3.745 0 0 0 2.551-1.833 3.9 3.9 0 0 0 .486-2.286 42.339 42.339 0 0 1 12.958 1.512 3.568 3.568 0 0 0 .525.161c.164.052.279.092.289.1a.755.755 0 0 0 .371.04c.033 0 .07.021.1.021a2.436 2.436 0 0 0 .85-.151c3.592-1.336 2.549-10.248-.335-18.362S28.533 2.146 24.933 3.473zm3.5 21.7c-.564-1.25-1.108-2.548-1.6-3.922-.341-.958-.634-1.879-.9-2.774a3.635 3.635 0 0 1 2.5 6.7zM2.4 30.962c-1.5-4-.421-6.2.62-7.292A19.691 19.691 0 0 0 7.3 35.166c-3.175-.008-4.825-4.024-4.9-4.204zm17.127 4.926a2.068 2.068 0 0 1-1.418 1.019l-5.726 1.086a2.077 2.077 0 0 1-2.321-1.319l-.127-.333a45.031 45.031 0 0 1 9.81-1.789 2.106 2.106 0 0 1-.216 1.336zM9.151 34.8C4.664 29.187 4.6 24.175 4.724 22.621A36.2 36.2 0 0 0 22.655 9.295a41.618 41.618 0 0 0 2.617 12.543 42.5 42.5 0 0 0 5.4 10.7c.275.371.542.661.811.979A46.448 46.448 0 0 0 9.151 34.8zm26.83-.262a.873.873 0 0 1-.349.034c-.146-.05-.4-.132-.751-.241a9.491 9.491 0 0 1-2.888-2.825 32.061 32.061 0 0 1-2.838-4.76 5.381 5.381 0 0 0 2.7-4.672 5.318 5.318 0 0 0-5.262-5.358 5.217 5.217 0 0 0-1.112.128c-1.346-5.19-1.41-9.072-.747-10.812l.025-.042c.01-.019.01-.042.021-.061a1.451 1.451 0 0 1 .727-.864.831.831 0 0 1 .3-.052c1.812 0 5.788 4.725 8.85 13.337 3.243 9.13 2.957 15.583 1.324 16.191z" class="cls-1" transform="translate(-.001 -3.32)"/>
            <path id="Path_10792" d="M19.124 13.183a.905.905 0 0 0 .659-.281L25.5 6.971a.916.916 0 1 0-1.32-1.27l-5.714 5.931a.916.916 0 0 0 .661 1.551z" class="cls-1" transform="translate(19.007 -.666)"/>
            <path id="Path_10793" d="M28.752 12.1l-8.218-.509a.933.933 0 0 0-.971.858.918.918 0 0 0 .858.971l8.218.509h.059a.917.917 0 0 0 .054-1.831z" class="cls-1" transform="translate(20.718 5.668)"/>
            <path id="Path_10794" d="M20.475 12.855l6.457-2.474a.914.914 0 1 0-.654-1.707l-6.457 2.474a.915.915 0 0 0 .328 1.77.991.991 0 0 0 .326-.063z" class="cls-1" transform="translate(20.302 2.377)"/>
        </g>
    </g>
</svg>
