<svg xmlns="http://www.w3.org/2000/svg" width="24.725" height="25" viewBox="0 0 24.725 25">
    <defs>
        <linearGradient id="prefix__linear-gradient" x1="1.401" x2="-.447" y1=".34" y2=".33" gradientUnits="objectBoundingBox">
            <stop offset="0" stop-color="#195dff"/>
            <stop offset=".162" stop-color="#264a9f"/>
            <stop offset="1" stop-color="#35d3e1"/>
        </linearGradient>
    </defs>
    <path id="prefix__Path_2246" fill="url(#prefix__linear-gradient)" d="M569.428 1202.231l-.163-.164a3.129 3.129 0 0 0-4.366 0l-3.754 3.754-11.261-2.937a.581.581 0 0 0-.571.163l-1.877 1.836a.526.526 0 0 0-.163.489.565.565 0 0 0 .245.449l7.671 5.957-1.877 1.876-5.959-1.547a.581.581 0 0 0-.571.163l-1.02 1.02a.525.525 0 0 0-.163.489.564.564 0 0 0 .245.449l3.957 3.1a3.09 3.09 0 0 0 .408 3.835l.163.163a3.021 3.021 0 0 0 2.162.9 3.071 3.071 0 0 0 1.673-.489l3.223 4.2a.706.706 0 0 0 .449.245h.041a.845.845 0 0 0 .449-.163l1.02-1.02a.6.6 0 0 0 .163-.571l-1.632-6.243 1.755-1.755 6.12 7.916a.705.705 0 0 0 .449.245h.041a.843.843 0 0 0 .449-.163l1.877-1.876a.6.6 0 0 0 .163-.571l-2.977-11.751 3.631-3.631a3.128 3.128 0 0 0 0-4.368zm-20.645 3.019l1.1-1.1 10.241 2.652-4.079 4.08zm-1.673 8.4l.286-.286 4.937 1.265-1.714 1.714zm11.22 10.608l-.286.286-2.856-3.713 1.8-1.8zm9.18-2.489l-1.1 1.1-5.8-7.465 4.162-4.162zm1.026-16.038l-.007.006-14.647 14.648a1.822 1.822 0 0 1-2.577.032l-.032-.032-.165-.162a1.823 1.823 0 0 1-.031-2.577l.031-.032 14.65-14.691a1.872 1.872 0 0 1 2.609 0l.163.163a1.872 1.872 0 0 1 .006 2.648z" data-name="Path 2246" transform="translate(-545.591 -1201.18)"/>
</svg>
